<?xml version="1.0" standalone="no"?>
<!DOCTYPE svg PUBLIC "-//W3C//DTD SVG 1.1//EN" "http://www.w3.org/Graphics/SVG/1.1/DTD/svg11.dtd" >
<svg xmlns="http://www.w3.org/2000/svg" xmlns:xlink="http://www.w3.org/1999/xlink" version="1.1">
<metadata>
Created by FontForge 20170731 at Thu May 27 11:38:34 2021
 By Aleksey,,,
Copyright Copr.1992 Image Club Graphics, Inc.
</metadata>
<defs>
<font id="FrizQuadrataBold" horiz-adv-x="1312" >
  <font-face 
    font-family="Friz Quadrata"
    font-weight="700"
    font-stretch="normal"
    units-per-em="2048"
    panose-1="0 0 0 0 0 0 0 0 0 0"
    ascent="1638"
    descent="-410"
    x-height="1079"
    cap-height="1550"
    bbox="-199.364 -506 2300 2187"
    underline-thickness="38"
    underline-position="-353"
    unicode-range="U+0020-25CA"
  />
<missing-glyph horiz-adv-x="1024" 
 />
    <glyph glyph-name=".notdef" horiz-adv-x="1024" 
 />
    <glyph glyph-name=".null" horiz-adv-x="0" 
 />
    <glyph glyph-name="nonmarkingreturn" horiz-adv-x="682" 
 />
    <glyph glyph-name="space" unicode=" " horiz-adv-x="620" 
 />
    <glyph glyph-name="exclam" unicode="!" horiz-adv-x="610" 
d="M530 1552l-59 -1046h-334l-57 1046h450zM530 215q0 -92 -67 -157t-158 -60q-85 5 -144.5 65t-60.5 144q-2 90 65 159t157 66q87 -3 147.5 -66.5t60.5 -150.5z" />
    <glyph glyph-name="quotedbl" unicode="&#x22;" horiz-adv-x="675" 
d="M592 1595l-29 -544h-133l-29 544h191zM266 1595l-26 -544h-134l-28 544h188z" />
    <glyph glyph-name="numbersign" unicode="#" horiz-adv-x="1202" 
d="M1114 494h-231l-76 -492h-199l70 492h-195l-69 -490h-199l70 490h-209v202h239l29 189h-225l2 198l252 4l67 461h197l-68 -461h199l63 463h203l-65 -460h145v-205h-178l-23 -189h201v-202zM739 887h-198l-23 -191h191z" />
    <glyph glyph-name="dollar" unicode="$" horiz-adv-x="1196" 
d="M1116 512q1 -92 -29 -163.5t-94 -141.5q-36 -39 -94 -72.5t-92 -42.5l-100 -26v-230h-185v230q-99 3 -188 20q-98 16 -189 51l-73 295q87 -65 186 -104q131 -52 242 -52h47q74 0 127 34.5t57 97.5q4 49 -29 97t-88 75l-262 127q-120 58 -190.5 150t-71.5 218
q-1 154 106.5 264.5t270.5 135.5l57 8v229h183v-231q53 -2 122 -17q55 -11 132 -39v-241q-54 35 -95 51q-97 43 -178 43h-43q-63 0 -111 -36.5t-51 -94.5q-1 -16 2.5 -30.5t9 -25.5t18 -22.5t20.5 -18t26.5 -16.5t26.5 -14t30.5 -14t28.5 -13l207 -100q258 -124 264 -381z
" />
    <glyph glyph-name="percent" unicode="%" horiz-adv-x="1931" 
d="M1849 485q2 -90 -27 -179.5t-80 -160t-126 -113.5t-158 -40q-164 9 -249.5 143.5t-88.5 341.5q-1 88 25.5 174.5t73 156t116.5 111t150 37.5q91 -3 161.5 -42t112.5 -105.5t64.5 -147.5t25.5 -176zM1493 1544l-879 -1544h-223l881 1544h221zM793 1079q3 -120 -43.5 -234
t-137 -188t-200.5 -69q-112 5 -192 72.5t-118 173.5t-39 239q-1 116 43.5 226.5t130.5 183.5t191 69q92 -4 162.5 -43t113 -105.5t64.5 -147.5t25 -177zM1606 512q5 283 -119 285q-59 0 -93 -90.5t-34 -194.5v-80q0 -47 5.5 -89t18 -83t37 -66.5t58.5 -27.5q34 -1 59.5 23.5
t39 67.5t20 87t8.5 92v76zM549 1106q5 283 -117 285q-32 1 -58 -26t-40.5 -70.5t-22.5 -92t-8 -96.5v-80q0 -46 5.5 -88.5t18.5 -83t37.5 -66t57.5 -26.5q34 -2 59.5 22.5t38.5 67.5t19.5 87t7.5 91z" />
    <glyph glyph-name="ampersand" unicode="&#x26;" horiz-adv-x="2082" 
d="M2009 6l-299 -20q-62 -5 -92.5 -6.5t-102 -0.5t-134 16t-117.5 44q-90 45 -158 113q-54 -60 -103.5 -94.5t-123.5 -63.5q-44 -16 -102.5 -25.5t-82.5 -9.5h-96q-48 0 -115 11.5t-160 50.5t-149 100q-111 132 -111 256v47q0 25 21.5 86.5t52.5 103.5q47 65 87.5 107
t101.5 88l82 61q-32 29 -93 109q-92 124 -92 227v39q0 65 41 133t98 101q75 43 138 60t149 17h49q99 0 186 -37.5t143 -111t56 -166.5q1 -95 -39 -163.5t-124 -141.5l-29 -25q85 -96 151 -162t164 -155q224 -207 299 -269q185 -154 406 -270zM756 1126q48 46 39.5 108.5
t-60.5 84.5q-69 29 -114 -16q-18 -20 -18.5 -47.5t11 -53t31.5 -49.5l62 -70zM946 307q-31 33 -81.5 85t-82.5 85q-62 63 -192 199q-34 -24 -55 -60q-41 -64 -41 -133v-43q0 -86 50.5 -151.5t135.5 -87.5q81 -20 152.5 9.5t113.5 96.5z" />
    <glyph glyph-name="quotesingle" unicode="'" horiz-adv-x="344" 
d="M262 1595l-29 -544h-135l-28 544h192z" />
    <glyph glyph-name="parenleft" unicode="(" horiz-adv-x="626" 
d="M551 -279h-182q-66 88 -106.5 158t-82.5 172q-50 124 -80 277.5t-30 222.5v188q0 85 25 209.5t69 249.5q41 122 84.5 206.5t118.5 190.5h184q-69 -130 -106.5 -234t-73.5 -259q-39 -175 -39 -348l2 -236q2 -126 26 -233q39 -187 77 -303.5t114 -260.5z" />
    <glyph glyph-name="parenright" unicode=")" horiz-adv-x="626" 
d="M543 553q0 -69 -30.5 -222.5t-80.5 -277.5q-43 -103 -83 -172.5t-107 -156.5h-181q76 146 114.5 264t76.5 299q24 123 24 231l5 238q0 62 -11 162.5t-30 185.5q-34 152 -72 257t-107 236h183q76 -110 119.5 -194t85.5 -203q44 -125 69 -249.5t25 -209.5v-188z" />
    <glyph glyph-name="asterisk" unicode="*" horiz-adv-x="690" 
d="M623 1235q-70 9 -127 -8q-24 -4 -54 -21v-8q11 -23 38.5 -56.5t49.5 -47.5q24 -21 58 -35q-17 -14 -107 -90q-8 -8 -16.5 -15.5t-18.5 -15.5t-16 -14q0 23 -10 65q-8 33 -37 90l-29 51h-12l-23 -51q-24 -53 -30 -88q-13 -40 -15 -67q-16 14 -39.5 35t-39.5 34
q-48 42 -78 66q34 12 65 37q55 41 82 100v14q-72 23 -133 21q-30 -3 -61 -8q3 13 26 104q16 59 37 109q35 -46 80 -74q36 -22 78 -35l8 4v21q0 68 -20 129q-8 26 -33 63h200q-24 -45 -28 -65q-15 -61 -15 -129v-19l9 -4q27 9 51 21q3 2 12.5 7.5t12.5 7t11 6.5t12 8t10 8
t10.5 9.5t9.5 10.5l28 39l6 -29q5 -18 22.5 -67.5t20.5 -71.5q1 -8 2.5 -22t2.5 -19z" />
    <glyph glyph-name="plus" unicode="+" horiz-adv-x="1042" 
d="M958 440h-366v-444h-164v444h-365v197h361v444h168v-444h366v-197z" />
    <glyph glyph-name="comma" unicode="," horiz-adv-x="489" 
d="M397 154q0 -62 -10 -102t-41 -81l-35 -51h-145l47 92l-35 4q-53 7 -84 49t-31 99q-1 59 41.5 103t104.5 52q47 7 83 -4.5t55 -31t31 -46.5t15.5 -46.5t3.5 -36.5z" />
    <glyph glyph-name="hyphen" unicode="-" horiz-adv-x="1124" 
d="M1083 723l-116 -242q-11 -25 -39 -39q-12 -7 -23.5 -7.5t-26 2.5t-24.5 3q-100 -7 -311 -4t-312 0q-13 0 -33.5 -0.5t-28.5 -1t-21 -2t-24.5 -4.5t-25.5 -8l-59 -21q3 14 30.5 65t64 113t44.5 78q4 9 9 15t12 8t11.5 2.5t15 0t14.5 -0.5l680 -2q15 0 27.5 2.5t31 8
t27.5 7.5q16 5 38.5 13.5t38.5 13.5z" />
    <glyph glyph-name="period" unicode="." horiz-adv-x="475" 
d="M258 0q-45 -6 -83 7t-60 39.5t-35.5 60.5t-9.5 70t18 67.5t47 54.5t78 29t83 -7t60 -39t35 -60t9.5 -70t-18 -67.5t-47 -55t-77.5 -29.5z" />
    <glyph glyph-name="slash" unicode="/" horiz-adv-x="890" 
d="M815 1550l-592 -1865h-268l571 1865h289z" />
    <glyph glyph-name="zero" unicode="0" horiz-adv-x="1349" 
d="M1276 778q4 -119 -22.5 -238t-81.5 -222.5t-130 -183t-176.5 -123t-212.5 -38.5q-140 6 -252.5 69.5t-185.5 171t-112.5 248.5t-41.5 306q-1 115 26 232t81 220t126.5 182.5t170.5 124t205 40.5q123 -5 223.5 -49.5t168.5 -117t115.5 -172.5t71 -211.5t27.5 -238.5z
M872 823q5 468 -198 475q-52 1 -94 -44t-67 -117t-38.5 -153.5t-13.5 -160.5v-131q0 -61 5 -118t19 -117t36 -104t58 -73.5t83 -31.5q57 -3 98.5 38.5t63.5 113t32 144t12 152.5z" />
    <glyph glyph-name="one" unicode="1" horiz-adv-x="892" 
d="M819 0h-667q27 15 65 53q42 45 60 93.5t18 115.5v877l-232 65q207 48 379 160q82 54 136.5 101t115.5 118l2 -1331q0 -71 10 -114t46 -85q27 -34 67 -53z" />
    <glyph glyph-name="two" unicode="2" horiz-adv-x="1361" 
d="M1276 340l-109 -342h-1104l455 768q20 34 31 53t33.5 59t35 66t30.5 66.5t25.5 69t15.5 64t4.5 61t-12 50t-29.5 41.5t-52 27q-134 41 -289 -47l-153 -84l98 313l74 23q148 45 289.5 50t268.5 -41.5t202 -145.5q44 -59 58.5 -129.5t5.5 -135.5t-41.5 -145.5t-66.5 -142
t-85 -142.5l-291 -454q86 -19 150.5 -21t150.5 10q161 21 305 109z" />
    <glyph glyph-name="three" unicode="3" horiz-adv-x="1251" 
d="M1182 475q4 -83 -24 -156.5t-80 -128.5t-123 -98.5t-154.5 -70.5t-173 -40.5t-180.5 -11.5t-175 19l-139 26l-55 273l117 -49q65 -28 138 -38t144 2t128.5 44t95 94.5t40.5 146.5q3 106 -80.5 180t-195.5 74h-186v207l122 2q104 2 179 58.5t75 156.5q-1 76 -43 121.5
t-107 56.5t-134.5 3.5t-132.5 -31.5l-125 -51l77 254l121 28q96 22 196.5 26t198.5 -14t178 -56t134.5 -106.5t66.5 -158.5q15 -108 -39.5 -198.5t-158.5 -127.5l-53 -18l59 -21q132 -40 208 -149.5t81 -247.5z" />
    <glyph glyph-name="four" unicode="4" horiz-adv-x="1548" 
d="M1481 616l-97 -288h-184v-154q0 -15 4 -30.5t8 -24t14.5 -27t14.5 -26.5q17 -31 55 -72h-622q39 25 67 69q38 53 41 117l9 150h-730l656 1220h487l4 -1015h45q61 0 129 26q48 16 99 55zM788 535v731l-387 -731h387z" />
    <glyph glyph-name="five" unicode="5" horiz-adv-x="1265" 
d="M1186 541q5 -131 -54.5 -246.5t-161 -192.5t-237.5 -113.5t-278 -17.5l-318 43l-71 265l149 -58q54 -20 109.5 -30.5t112.5 -10.5t107 17.5t91.5 49.5t69 89.5t34.5 134.5q8 88 -22 156t-85 106t-127 58t-147.5 19t-146.5 -19l-102 -25l36 782h912l-2 -321
q-93 69 -201 80q-146 17 -262 6l-94 -10l-15 -302q74 23 155.5 23t157.5 -20.5t146 -62.5t122.5 -99.5t85.5 -135.5t36 -165z" />
    <glyph glyph-name="six" unicode="6" horiz-adv-x="1361" 
d="M1292 539q0 -170 -81 -303t-217.5 -204t-301.5 -71q-156 0 -277 53t-196.5 147.5t-114 219t-38.5 272.5q0 105 33 211.5t92.5 203t147 183t191.5 152.5t231 110.5t261 57.5l154 14l-93 -196l-110 -35q-34 -11 -73 -30t-88 -52.5t-95 -75t-91 -101.5t-77.5 -128t-53 -158
t-20.5 -188q0 -431 217 -431q92 0 143.5 85.5t51.5 228.5q0 164 -79 252t-196 57l-45 -14l170 225h80q146 0 255.5 -67t164.5 -176t55 -242z" />
    <glyph glyph-name="seven" unicode="7" horiz-adv-x="1105" 
d="M1036 1538l-401 -1341q-9 -16 -8 -67t20 -83q21 -35 47 -53h-491l422 1294q-85 24 -224 27q-179 3 -282 -64l-58 -41l93 326z" />
    <glyph glyph-name="eight" unicode="8" horiz-adv-x="1402" 
d="M1329 432q3 -88 -32 -165.5t-97.5 -132t-145.5 -94t-174 -59t-184 -20.5q-94 0 -182.5 15.5t-171 50.5t-144 87t-98.5 130t-37 174q0 125 75.5 214.5t203.5 139.5q-104 55 -166.5 152.5t-62.5 226.5q-1 128 84 226.5t218.5 145t284.5 38.5q64 -3 112 -7.5t107.5 -16.5
t103.5 -29.5t89.5 -48.5t76 -72t52.5 -101t29 -135q8 -104 -58 -178.5t-172 -120.5q137 -59 211 -165t78 -255zM930 1194q-32 94 -111.5 139.5t-179.5 18.5q-48 -14 -77.5 -52t-33.5 -82.5t26 -92t93 -76.5l221 -103q59 57 73 118t-11 130zM793 535l-285 135
q-74 -54 -102 -131t-5 -166q15 -58 52.5 -102t85 -64t101.5 -27.5t101 6.5q79 19 121 67.5t43 101.5t-28.5 104t-83.5 76z" />
    <glyph glyph-name="nine" unicode="9" horiz-adv-x="1368" 
d="M1296 899q8 -168 -65.5 -335.5t-201 -298t-305.5 -219t-368 -105.5l-168 -17l91 205l120 37q131 42 229 124.5t156 193.5t83 242.5t16 279.5q-3 62 -19 121t-44 109.5t-73.5 78t-101.5 20.5q-65 -9 -106 -61t-55 -116.5t-13 -141.5q2 -57 13 -107.5t33 -95t61 -73.5
t90 -35q62 -8 127 20l-177 -240q-118 -2 -211 24.5t-154.5 73.5t-103 115t-60.5 145t-21 169q-3 154 77.5 282t219.5 200t303 71q191 -1 330 -84t213.5 -231t84.5 -351z" />
    <glyph glyph-name="colon" unicode=":" horiz-adv-x="481" 
d="M260 457q-45 -6 -82.5 6.5t-59 38.5t-35 59.5t-9.5 69t18 66.5t46.5 54t76.5 29q45 6 82.5 -7t59 -39t35 -59.5t9.5 -69t-18 -66.5t-46.5 -53.5t-76.5 -28.5zM240 0q-44 -1 -79.5 15.5t-54 44.5t-28 62t-2 68t24 62.5t50.5 47t78 19.5t79 -15.5t53.5 -44t28 -61.5t2 -68
t-24 -63t-50.5 -47.5t-77 -19.5z" />
    <glyph glyph-name="semicolon" unicode=";" horiz-adv-x="481" 
d="M254 457q-44 -6 -81.5 6.5t-59.5 38.5t-35.5 59.5t-10 69t17.5 66.5t46.5 54t77.5 29q44 6 81 -7t59 -39t35 -59.5t9.5 -69t-17.5 -66.5t-46 -53.5t-76 -28.5zM397 154q0 -62 -10 -102t-41 -81l-35 -51h-145l47 92l-35 4q-53 7 -84 49t-31 99q-1 59 41.5 103t104.5 52
q47 7 83 -4.5t55 -31t31 -46.5t15.5 -46.5t3.5 -36.5z" />
    <glyph glyph-name="less" unicode="&#x3c;" horiz-adv-x="1396" 
d="M1309 -4l-1241 526v148l1241 532v-145l-1092 -463l1092 -463v-135z" />
    <glyph glyph-name="equal" unicode="=" horiz-adv-x="1402" 
d="M1311 692h-1241v152h1241v-152zM1307 233h-1237v156h1237v-156z" />
    <glyph glyph-name="greater" unicode="&#x3e;" horiz-adv-x="1396" 
d="M1313 522l-1241 -526v135l1091 463l-1091 463v145l1241 -532v-148z" />
    <glyph glyph-name="question" unicode="?" horiz-adv-x="1077" 
d="M948 1331q82 -172 12.5 -317.5t-315.5 -317.5q-38 -27 -55 -59.5t-16.5 -55.5t3.5 -47t1 -30h-310q-6 84 -2 143q4 40 25 80.5t50.5 72.5t64 68t65.5 68t55 72t31.5 79.5t-4.5 90.5q-22 81 -133.5 132.5t-241.5 -1.5l-112 -45l94 282l94 25q60 16 132.5 21t156.5 -5.5
t160 -38t142.5 -83.5t102.5 -134zM662 219q2 -70 -28.5 -123t-79 -78t-106 -27t-107.5 19.5t-84.5 72t-37.5 120.5q-1 48 13 88t38.5 67t57.5 46t69.5 24t73 2.5t70.5 -19t60.5 -41.5t42.5 -64t18 -87z" />
    <glyph glyph-name="at" unicode="@" horiz-adv-x="1773" 
d="M1665 932q0 -151 -69 -294.5t-189 -236t-256 -92.5q-36 0 -69 11t-55.5 27t-39 32t-26.5 28t-11 13q-8 -10 -39.5 -32t-93.5 -47t-119 -24q-127 2 -215 92.5t-88 227.5q0 167 74 319.5t200 247t269 94.5q47 0 88.5 -13t65 -28t46 -40t27.5 -33.5t13 -23.5l2 -2v-1l32 96
h152l-240 -680l-3 -11q-3 -12 -4.5 -17t-4 -18t-2.5 -20.5v-20t2.5 -20.5t7 -17t12 -14.5t18.5 -9t26 -3.5q32 0 76 21.5t91.5 66.5t88 104.5t66.5 145.5t26 180q0 246 -161.5 400.5t-444.5 154.5q-146 0 -277 -57.5t-223.5 -153.5t-146 -227t-52.5 -273q4 -193 100 -347
t254 -238t345 -84q196 0 318.5 62.5t236.5 209.5h133q-1 -5 -10.5 -25t-34.5 -58.5t-59.5 -79t-91 -84.5t-123 -78t-161.5 -56t-202 -22q-150 0 -283 39.5t-234.5 111.5t-175 171t-112 221.5t-39.5 258.5q-1 169 64.5 325t176.5 269.5t265 181.5t323 68q120 0 230.5 -28
t206.5 -85.5t167 -139t111.5 -196t40.5 -249.5zM1085 1018q0 20 -4 38.5t-15.5 44.5t-41.5 42t-74 16q-67 0 -135 -40.5t-122 -107t-88 -158.5t-34 -189q0 -85 39 -145t125 -60q59 0 115.5 46.5t97.5 116t73 148t48 145t16 103.5z" />
    <glyph glyph-name="A" unicode="A" horiz-adv-x="1800" 
d="M1735 0h-736q70 20 103 84q31 60 2 141l-82 248h-465l-84 -246q-27 -85 -2 -143q28 -61 107 -84h-521q21 17 58 63q16 19 28.5 34t24.5 34t20 41l408 1180q10 33 8 53q0 51 -31 91t-75 54h592l483 -1335q18 -50 69 -117q34 -45 93 -98zM948 698l-164 451l-163 -451h327z
" />
    <glyph glyph-name="B" unicode="B" horiz-adv-x="1431" 
d="M1362 467q-5 -192 -140 -329.5t-325 -137.5h-823q33 17 55 45q30 33 43.5 59.5t13.5 63.5l2 1182q0 55 -24 104q-24 56 -76 96h743q92 0 166.5 -21.5t124 -57t84 -84.5t50.5 -100t20 -107q7 -108 -66 -188t-184 -113q161 -41 250 -145.5t86 -266.5zM840 1141
q-2 88 -50.5 145.5t-119.5 40.5l-49 -14v-365l49 -4q73 -6 121.5 57t48.5 140zM938 485q-6 129 -58.5 193.5t-172.5 64.5h-84v-493l32 -19q11 -7 36 -9.5t58.5 1t67.5 20.5t62.5 44.5t45 79t13.5 118.5z" />
    <glyph glyph-name="C" unicode="C" horiz-adv-x="1583" 
d="M1518 346l-115 -334l-240 -41q-132 -19 -253.5 -16.5t-231.5 32.5t-203.5 78.5t-168.5 121.5t-128 161t-81 196t-27 228q1 179 70 329t192 254.5t305 156t399 34.5l267 -20l10 -326q-51 45 -156.5 84.5t-214.5 36.5q-80 -2 -144 -23t-106.5 -51.5t-73.5 -78.5t-47 -92
t-26 -105t-12 -104.5t-3 -102.5q-1 -88 16 -169t55 -153.5t94 -125.5t139 -83.5t184 -29.5q99 1 171 17t163 56z" />
    <glyph glyph-name="D" unicode="D" horiz-adv-x="1714" 
d="M1651 750q-3 -167 -57.5 -303t-157.5 -236.5t-263.5 -155.5t-365.5 -55h-715q7 3 21 7t22.5 8.5t16.5 13.5q34 34 46.5 70.5t12.5 90.5v1180q0 49 -39 107q-36 52 -68 73h768q170 0 317.5 -64.5t248.5 -173.5t158 -255t55 -307zM1194 754q0 73 -10.5 141.5t-33.5 136
t-60.5 119t-91.5 90.5t-125.5 49.5t-163.5 -4.5l-72 -12v-1020l70 -27q87 -30 157 -25.5t123.5 42t92.5 93t64 127.5t37 145t13 145z" />
    <glyph glyph-name="E" unicode="E" horiz-adv-x="1306" 
d="M1231 358l-98 -358h-1053q39 19 57 39q56 61 56 162v1173q0 10 -9 45.5t-22 55.5q-46 57 -76 75h879q28 0 34 2q14 3 25 11v-361q-18 43 -57 70q-23 17 -56.5 27t-48.5 10h-233v-379h225q46 0 61 4q5 2 15.5 6t15.5 6v-352q-17 49 -59 76q-39 28 -105 28h-155v-444
q53 -21 142 -32.5t163 -4.5q35 4 63 9.5t48 9.5t41 14t30.5 13.5t29.5 19t25.5 20t29.5 26.5t32 29z" />
    <glyph glyph-name="F" unicode="F" horiz-adv-x="1099" 
d="M1016 1200q-25 46 -58 70q-23 17 -55.5 28t-46.5 11h-235v-379h221q8 0 24 8q10 2 25 10v-362q-2 11 -5 19t-10 18t-9.5 13t-14.5 17q-40 45 -104 45h-127v-460q0 -51 10.5 -88t38.5 -78q26 -43 65 -72l-655 -2q25 14 47 33q33 32 45 68.5t12 90.5v1174q0 17 -7.5 58
t-22.5 59q-33 44 -76 69h878q30 0 37 2q11 4 23 11v-363z" />
    <glyph glyph-name="G" unicode="G" horiz-adv-x="1536" 
d="M1452 39q-48 -18 -210 -42.5t-296 -27.5q-136 -2 -264.5 30.5t-238.5 100.5t-193 163.5t-130 226.5t-48 282q-1 169 71 322.5t191.5 260t279 165t326.5 49.5q99 -6 140 -9t109 -13t114 -25l2 -322l-88 53q-40 26 -131.5 53.5t-159.5 20.5q-407 -34 -412 -512
q0 -163 45.5 -299t137.5 -220.5t214 -84.5h105q4 0 16 4q11 0 17 4v404q0 45 -29 98q-26 45 -70 76h502v-758z" />
    <glyph glyph-name="H" unicode="H" horiz-adv-x="1728" 
d="M1620 1550q-17 -10 -28 -21.5t-28 -36t-20 -28.5q-15 -20 -24 -55t-9 -47v-1112q0 -8 -0.5 -37t0 -39t3 -30.5t9 -36.5t17.5 -33q26 -45 76 -74h-653q30 18 49 37q61 61 61 162v499h-422v-456v-31.5v-32.5t1.5 -26.5t5 -30t9.5 -26t15 -29.5q14 -23 29.5 -36t44.5 -30
h-654q5 3 14 6.5t14 6t11 6.5t11 10q59 56 59 161v1180q0 15 -7 49t-22 54q-2 2 -5 6q-36 48 -62 64q-6 4 -13 7h654q-8 -5 -15.5 -11.5t-12 -10.5t-12.5 -14l-10 -12.5t-11.5 -16.5t-10.5 -15q-15 -19 -24 -53.5t-9 -46.5v-440h422v442q0 61 -26 96q-6 8 -17 23.5t-17 23
t-17 18t-23 17.5h647z" />
    <glyph glyph-name="I" unicode="I" horiz-adv-x="937" 
d="M821 0h-655q28 14 49 35q59 56 59 162v1177q0 13 -7.5 48t-22.5 55q-22 29 -37.5 44t-42.5 29h657q-12 -7 -23 -16.5t-16.5 -16t-17 -21.5t-16.5 -21q-15 -20 -24 -55t-9 -46v-1126q0 -9 -0.5 -32t0 -32.5t2 -28t4.5 -29.5t9 -26t15 -28q26 -44 76 -72z" />
    <glyph glyph-name="J" unicode="J" horiz-adv-x="827" 
d="M729 1550q-15 -9 -26 -20.5t-27 -35.5t-19 -28q-15 -20 -25.5 -53t-10.5 -43v-1421q0 -24 -23 -97.5t-61 -113.5q-68 -70 -160 -123.5t-143 -71.5t-74 -22l-129 -25q58 75 106 182q41 95 57.5 164.5t16.5 163.5v1358q0 15 -7 48.5t-22 53.5q-3 4 -12 17t-12 17t-11 14
t-13.5 14.5t-14 11t-17.5 10.5h627z" />
    <glyph glyph-name="K" unicode="K" horiz-adv-x="1667" 
d="M1608 -6h-119q-2 0 -34.5 -1t-61 -1t-76 2.5t-88 7.5t-88 16.5t-84.5 28.5q-34 14 -63.5 41t-41.5 49l-325 553v-436q0 -10 -0.5 -32.5t0 -32t1.5 -27t4 -29t8.5 -26.5t14.5 -29q32 -51 76 -80h-639q18 10 43 35q34 36 48 75t14 93l2 1177q0 8 -15 49.5t-30 61.5
q-24 35 -72 61h655q-45 -22 -78 -69q-15 -19 -23.5 -54.5t-8.5 -48.5v-532l372 481q40 52 25 115q-15 83 -100 108h589l-528 -635l520 -819q8 -12 15.5 -20.5t21.5 -22t17 -16.5q6 -5 49 -43z" />
    <glyph glyph-name="L" unicode="L" horiz-adv-x="1286" 
d="M1206 322l-82 -322l-1036 -2q17 9 51 39q21 15 42.5 62t21.5 91v1182q0 15 -7 50t-22 55q-22 29 -38.5 45t-43.5 28h647q-12 -9 -22.5 -19.5t-16 -17t-17 -22t-17.5 -23.5q-13 -20 -22 -57.5t-9 -48.5v-1102q64 -24 112 -31.5t123 -7.5q69 1 112 5t85 20.5t61.5 28
t77.5 47.5z" />
    <glyph glyph-name="M" unicode="M" horiz-adv-x="2152" 
d="M2097 0h-631q51 20 70 63q25 55 20 109l-83 829l-320 -1036q-64 16 -109 40t-110 71q-105 81 -143 190l-281 750l-82 -877q-2 -20 6 -38.5t17.5 -28.5t29.5 -29q27 -27 66 -43h-490q35 24 64 63q40 59 51 140l131 1124q8 65 -20 127q-18 52 -72 96h547l350 -911l281 911
h575q-32 -14 -49 -26.5t-31 -38.5q-26 -46 -18 -107l143 -1206q0 -4 0.5 -16.5t1 -17t1 -14t2 -15.5t3.5 -14.5t4.5 -16t6.5 -15.5q19 -42 69 -63z" />
    <glyph glyph-name="N" unicode="N" horiz-adv-x="1722" 
d="M1632 1550q-36 -36 -69 -100q-33 -62 -33 -133l-2 -1378q-79 16 -133 34.5t-119 53.5q-193 101 -277 215l-538 723v-723q0 -98 47 -170q19 -34 61 -72h-467q39 36 60 72q47 77 47 172v985q0 61 -6.5 100.5t-28.5 85.5q-20 39 -53.5 82.5t-46.5 52.5h489l719 -962v731
q0 53 -33 127q-4 7 -15 28t-16 29t-15.5 22t-22.5 25h452z" />
    <glyph glyph-name="O" unicode="O" horiz-adv-x="1888" 
d="M1804 797q0 -195 -67.5 -353.5t-188.5 -265t-288.5 -164t-366.5 -57.5q-185 0 -342 64.5t-262 174.5t-164 255t-59 305q0 170 64.5 319.5t178.5 258.5t278 172t355 63q247 0 442.5 -95t307.5 -272t112 -405zM1343 690q0 97 -15 188.5t-49 175.5t-83.5 146.5t-123 99.5
t-163.5 37q-95 0 -171 -40.5t-124 -111t-73 -162t-25 -196.5q0 -118 29.5 -231.5t83 -204t135.5 -146t178 -55.5q85 0 153.5 27.5t114 74t76 111t44 136t13.5 151.5z" />
    <glyph glyph-name="P" unicode="P" horiz-adv-x="1341" 
d="M1274 1102q3 -94 -40 -178.5t-114.5 -143t-165 -92.5t-190.5 -33l-135 2q107 40 163.5 134t59.5 221q3 111 -51 192.5t-158 91.5l-31 4v-1046q0 -57 8.5 -95.5t34.5 -80.5q29 -46 76 -80h-641q30 20 43 35q66 66 66 160v1183q0 8 -16 58.5t-29 70.5q-19 24 -54 45h672
q231 0 362 -124.5t140 -323.5z" />
    <glyph glyph-name="Q" unicode="Q" horiz-adv-x="1734" 
d="M1985 -242q-51 -41 -99.5 -69.5t-82 -42.5t-71.5 -21t-55 -8t-46 0.5t-32 1.5q-78 1 -147 20.5t-140 63.5t-121 83t-132 110l-84 73q-198 -25 -369.5 28t-288.5 164.5t-184 271.5t-67 345q0 163 63 311t170 255t256.5 170t316.5 63q154 1 296 -55t251.5 -156.5
t174.5 -253.5t65 -334q0 -204 -79 -372t-208 -277l68 -55q28 -24 75.5 -66.5t83.5 -72t80 -60.5q49 -36 101.5 -59t90 -32.5t114.5 -25.5zM1233 668q0 98 -14 191.5t-45.5 181.5t-77 153.5t-114.5 105t-153 39.5q-68 0 -123 -28.5t-91.5 -77t-62 -114t-36.5 -136.5t-12 -149
q0 -96 12.5 -184.5t43 -174t76 -148t117.5 -101t162 -38.5q152 0 235 125.5t83 354.5z" />
    <glyph glyph-name="R" unicode="R" horiz-adv-x="1597" 
d="M1526 0l-191 2q-18 0 -89 -9t-131 -6.5t-105 25.5q-76 39 -138 168l-254 477v-399v-27.5v-27.5t0.5 -23t2.5 -25.5t4.5 -22t7 -25t10.5 -23.5q13 -29 30 -47t48 -39h-647q40 30 43 33q69 64 69 168l-2 1179q0 9 -15 58t-30 69q-22 27 -51 45h752q121 0 213.5 -36.5
t145.5 -99t79 -138t25 -160.5q-2 -69 -30 -130.5t-62 -98.5t-78 -68t-63 -40.5t-32 -14.5l-18 -8l39 -64q75 -121 161.5 -274t141.5 -234q63 -91 164 -184zM868 1057q3 109 -45.5 180.5t-140.5 71.5h-64v-527q39 3 81 23.5t79 55t62.5 86t27.5 110.5z" />
    <glyph glyph-name="S" unicode="S" horiz-adv-x="1300" 
d="M1231 479q4 -154 -79.5 -271.5t-229.5 -179.5t-330 -63q-200 0 -402 74l-57 20l-70 324l168 -96q70 -40 163.5 -62t178.5 -18q101 5 163 46t61 120q0 69 -44 116t-122 84l-164 80q-211 103 -299 212t-82 282q4 127 82 223t202 146t277 55q121 3 264 -29l148 -37v-274
l-92 51q-38 21 -100 38.5t-122 20.5q-167 7 -213 -104q-34 -86 46 -150q41 -33 170 -94l24 -12l156 -72q126 -57 213 -173t90 -257z" />
    <glyph glyph-name="T" unicode="T" horiz-adv-x="1361" 
d="M1300 1550l-88 -344q-5 11 -13.5 22.5t-17.5 22.5t-12 15q-43 43 -116 43h-117l-35 -15v-1069q0 -60 6 -83t37 -68q31 -47 78 -76h-655q18 14 45 41q55 66 55 162l-2 1102l-21 6h-165q-43 0 -111 -33q-51 -20 -98 -59l90 333h1140z" />
    <glyph glyph-name="U" unicode="U" horiz-adv-x="1644" 
d="M1575 -2h-533v192q-73 -116 -200.5 -175t-272.5 -33q-161 27 -270 132.5t-109 256.5v991q0 14 -10.5 58.5t-25.5 64.5q-33 43 -86 65h659q-44 -23 -80 -67q-15 -19 -25 -56.5t-10 -48.5v-835q0 -164 47.5 -234t155.5 -73q70 -3 123 41.5t78.5 114t25.5 149.5v839
q0 19 -7.5 49.5t-22.5 49.5q-37 50 -72 71h635q-28 -18 -70 -71q-15 -20 -25 -57.5t-10 -47.5v-1134q0 -50 1 -69.5t9.5 -51.5t26.5 -58q27 -39 68 -63z" />
    <glyph glyph-name="V" unicode="V" horiz-adv-x="1638" 
d="M1563 1550l-543 -1603l-139 53q-1 1 -15 6t-26 9.5t-32.5 13.5t-38.5 18t-40 21.5t-40.5 25.5t-37.5 29t-33 33q-48 57 -81 145l-377 1073q-26 72 -45 103q-4 6 -15 19.5t-15.5 19.5t-14 15.5t-19.5 18.5h524q0 -4 -1 -10.5t-0.5 -17.5t10 -54t28.5 -114q5 -27 29 -94
l295 -863l297 918q22 62 4 121q-23 80 -104 114h430z" />
    <glyph glyph-name="W" unicode="W" horiz-adv-x="2365" 
d="M2300 1550l-496 -1593l-123 41q-25 9 -61 26t-93.5 57t-88.5 81q-15 22 -26 41t-19.5 39t-12 30t-11 34.5t-9.5 31.5l-174 557l-242 -936l-123 35q-42 14 -125 61t-129 107q-31 40 -47 75.5t-33 94.5l-303 1028q-14 44 -67 117q-35 44 -66 73h541q0 -4 -5.5 -7t-8.5 -10
t3 -47.5t25 -111.5q5 -20 13.5 -49t13.5 -49l225 -821l199 780q13 55 -10 146t-60 128q-6 6 -17.5 20t-19.5 21h514q-20 -33 -22 -45q-4 -54 14 -116l273 -924l217 770q24 84 22 129q-1 57 -21.5 100.5t-62.5 85.5h416z" />
    <glyph glyph-name="X" unicode="X" horiz-adv-x="1730" 
d="M1669 0h-573l-336 594l-223 -330q-14 -23 -25.5 -61.5t-7.5 -73.5q6 -43 24 -74t52 -59l-531 4l574 805l-338 594q-29 52 -78 98q-28 26 -72 53h557l273 -501l178 280q36 58 8 131q-23 64 -82 90h520l-495 -716l366 -601q37 -59 61 -91t72 -83q26 -30 76 -59z" />
    <glyph glyph-name="Y" unicode="Y" horiz-adv-x="1507" 
d="M1425 1550l-428 -856v-438q0 -54 11 -93t39 -85q24 -44 63 -78h-655q29 19 59 53q57 71 49 166v479l-348 662q-5 9 -16.5 30t-16.5 30t-16 24.5t-23 30.5q-38 43 -82 75h547l275 -567l166 342q26 54 24 107q-5 72 -80 118h432z" />
    <glyph glyph-name="Z" unicode="Z" horiz-adv-x="1529" 
d="M1454 383l-127 -383h-1264l701 1309l-43 2q-5 0 -40.5 2.5t-66 3.5t-73 0.5t-84.5 -6.5t-78 -17q-132 -42 -209 -90l125 346h1075l-692 -1296q112 -27 332 -25q84 0 179 27.5t138.5 48.5t69.5 37z" />
    <glyph glyph-name="bracketleft" unicode="[" horiz-adv-x="696" 
d="M614 -279h-551q45 36 64 80q14 36 14 113l2 1526q0 39 -32 94q-23 38 -48 61h541v-153h-172v-1563h182v-158z" />
    <glyph glyph-name="backslash" unicode="\" horiz-adv-x="884" 
d="M924 -315h-271l-590 1865h285z" />
    <glyph glyph-name="bracketright" unicode="]" horiz-adv-x="696" 
d="M618 1595q-29 -26 -47 -61q-30 -52 -30 -94v-1526q0 -77 14 -113q16 -42 63 -80h-550v158h182v1563h-172v153h540z" />
    <glyph glyph-name="asciicircum" unicode="^" horiz-adv-x="937" 
d="M868 1270l-100 -53l-307 98l-301 -98l-101 53l406 211z" />
    <glyph glyph-name="underscore" unicode="_" horiz-adv-x="1413" 
d="M1466 -356h-1454v67h1454v-67z" />
    <glyph glyph-name="grave" unicode="`" horiz-adv-x="641" 
d="M571 1350l-104 -60l-406 158l84 154z" />
    <glyph glyph-name="a" unicode="a" horiz-adv-x="1349" 
d="M1280 190l-94 -198l-43 -4q-105 -12 -187.5 11.5t-167.5 84.5q-48 35 -76 109.5t-28 121.5v197l-119 -57q-41 -20 -63.5 -55.5t-20.5 -77.5q0 -63 62 -106.5t125 -20.5l-99 -205q-88 -2 -141 -2q-103 0 -185 37t-134 117.5t-52 195.5q0 44 13.5 81.5t33 64.5t54 51.5
t64.5 39.5t76.5 30.5t77 23.5t79.5 20q140 36 178 56q57 29 57 71q0 54 -32.5 80.5t-127.5 26.5q-104 0 -163 -27l-117 -47l108 264l115 17q82 12 199 12q109 0 191.5 -30t131.5 -83t73 -120t24 -148v-354q0 -98 69 -148q54 -37 119 -29z" />
    <glyph glyph-name="b" unicode="b" horiz-adv-x="1437" 
d="M1378 563q1 -275 -200 -442.5t-521 -161.5q-120 1 -267.5 18t-201.5 29l-82 19q31 21 41 45q17 28 17 61l2 1276q0 17 -5 33.5t-9 24.5t-17 30q-19 30 -51 55h373q29 0 73 13q25 10 52 28v-1405l57 -8q76 -11 137.5 16t97.5 79t54 117.5t14 133.5q-10 153 -64 244.5
t-173 116.5l-60 12l111 201l49 6q148 18 279 -43t212.5 -193t81.5 -305z" />
    <glyph glyph-name="c" unicode="c" horiz-adv-x="1187" 
d="M1108 313l-74 -258l-102 -32q-156 -50 -301 -50q-115 0 -218.5 36t-183.5 102.5t-127 169t-47 227.5t40.5 229.5t119 182.5t203 122t282.5 45q62 0 127 -6l146 -14v-262l-103 49q-62 29 -151 29q-109 0 -167 -89t-58 -231q0 -179 86 -272.5t221 -93.5q98 0 184 47z" />
    <glyph glyph-name="d" unicode="d" horiz-adv-x="1425" 
d="M1362 0h-514v727l-25 70q-12 36 -43.5 55.5t-72.5 19.5q-95 0 -151 -80t-56 -227q0 -154 65 -258t183 -110l40 -2l-118 -195l-76 -16q-37 -4 -90.5 10t-113 42.5t-118 76t-106 105.5t-76.5 136.5t-29 163.5q0 162 71 300t191.5 218t260.5 80q100 0 194 -49l70 -35v338
q0 75 -35 127q-18 28 -57 53h393q27 0 63 19q38 27 39 28v-1361q0 -52 12.5 -90t41.5 -83q32 -43 57 -63z" />
    <glyph glyph-name="e" unicode="e" horiz-adv-x="1251" 
d="M1184 297l-84 -258l-107 -33q-137 -43 -272 -43q-296 0 -475.5 144.5t-179.5 400.5q0 116 31.5 213.5t86.5 166.5t128 117.5t156.5 71.5t172.5 23q122 0 231.5 -48t189 -146.5t97.5 -229.5l21 -152h-721l8 -69q6 -64 44 -118.5t89.5 -87t105 -51t97.5 -18.5q129 2 272 68
zM786 721q0 73 -48.5 120.5t-114.5 47.5q-64 0 -110.5 -47t-49.5 -121h323z" />
    <glyph glyph-name="f" unicode="f" horiz-adv-x="972" 
d="M997 1528l-153 -236l-39 25q-19 11 -52 14t-69 -12q-27 -12 -44 -46t-17 -52v-150h262v-272q-15 17 -35 26q-24 16 -49 21h-183v-653q0 -63 31 -121q27 -45 64 -74l-582 2q54 26 78 78q3 7 5.5 14.5t4.5 13t3 14t1.5 12.5t1 14.5t0.5 13v15v15.5v656h-162l162 221v135
q0 42 22 94t59.5 102.5t97 90t126.5 51.5q78 14 197.5 17t206.5 -15z" />
    <glyph glyph-name="g" unicode="g" horiz-adv-x="1327" 
d="M1268 -131q0 -91 -48.5 -165t-127.5 -118.5t-173 -68t-192 -23.5h-276q-43 0 -93.5 5.5t-114 23t-113 44t-84 74.5t-34.5 109q0 81 68 142t158 61q39 1 69 0.5t61 -9.5t62 -28l-24 -6q-29 -7 -44.5 -32t-15.5 -58q0 -45 36 -77.5t85 -46t104 -13.5q63 0 117.5 15.5
t93.5 53.5t39 92q2 83 -41.5 135t-140.5 52h-127q-24 0 -67 -6t-72.5 -4t-57.5 20q-47 30 -67 65l-41 72q-16 25 -10 51q2 13 10.5 22.5t16 13t26 10t24.5 8.5l82 32q-116 34 -200 128.5t-84 222.5q0 69 31.5 140t89 131.5t150 99t202.5 38.5q90 0 162 -9.5t141 -6.5
q64 3 192.5 5t214.5 9l-108 -223h-98q75 -101 75 -184q0 -86 -31.5 -152t-79.5 -106.5t-119 -69t-134 -41t-142 -21.5l-71 -8q-17 -1 -28 -15.5t-11 -33.5q1 -23 43 -23t113.5 9.5t107.5 7.5l115 -10q164 -13 272.5 -102t108.5 -232zM731 696q0 70 -41 123t-106 53
q-63 0 -98 -49t-35 -127q0 -91 35.5 -152t103.5 -61q80 0 110.5 54t30.5 159z" />
    <glyph glyph-name="h" unicode="h" horiz-adv-x="1402" 
d="M1327 0h-582q51 34 76 86q17 39 17 104v537q0 57 -42.5 97t-99.5 40q-57 -2 -97 -41t-40 -94v-526q0 -92 23 -133q24 -42 65 -70l-571 2q45 31 65 78q9 19 13.5 39.5t5 32.5t0.5 43v1202q0 37 -21 80q-23 48 -65 73h370q21 0 72 19q8 4 21.5 10t21.5 10v-575
q64 51 130.5 70.5t168.5 19.5q88 0 174.5 -36.5t145.5 -104.5t59 -148v-620q0 -33 1 -49.5t7.5 -39.5t20.5 -43q20 -39 61 -63z" />
    <glyph glyph-name="i" unicode="i" horiz-adv-x="841" 
d="M639 1356q3 -94 -63.5 -163.5t-159.5 -68.5q-89 1 -150.5 63t-64.5 150q-4 90 68 164.5t149 69.5q92 -6 155 -66.5t66 -148.5zM721 0l-582 2q29 14 47 31.5t31 46.5l6 12t5 10.5t3.5 11.5t2.5 11t2 11.5t1.5 10.5t0.5 12v11v12.5v12.5v725q0 19 -10.5 52t-20.5 48
q-33 41 -60 59h379q21 0 64 15q31 12 45 22l2 -928q0 -75 22 -114q21 -39 62 -74z" />
    <glyph glyph-name="j" unicode="j" horiz-adv-x="780" 
d="M633 1360q3 -92 -61.5 -158.5t-157.5 -68.5q-87 -1 -150.5 59.5t-68.5 148.5q-4 90 69 164.5t150 69.5q90 -6 153 -66.5t66 -148.5zM629 -100q0 -85 -37 -157.5t-103 -113.5q-92 -56 -213 -90.5t-161 -34.5h-66l47 50q62 59 94 124q33 79 33 119v1116q0 18 -11 51t-22 44
q-1 2 -11 14t-12 14t-9.5 11t-12.5 12.5t-13 9t-17 10.5h405q30 0 70 19q18 5 39 20v-1218z" />
    <glyph glyph-name="k" unicode="k" horiz-adv-x="1521" 
d="M1442 0l-393 -6q-74 0 -115 18q-51 25 -78 72l-256 405v-282q0 -99 25 -141q31 -45 67 -66h-594q51 26 78 84q17 37 17 115v1194q0 41 -19 80q-20 43 -68 77h375q21 0 68 15q11 3 27.5 9.5t23.5 8.5v-971l236 279q22 27 22 70q0 31 -18 59t-41 41l-33 18h561l-377 -413
l342 -525q45 -69 84 -100q46 -32 66 -41z" />
    <glyph glyph-name="l" unicode="l" horiz-adv-x="878" 
d="M758 0l-594 -2q54 33 76 82q20 39 20 113v1204q0 36 -22 82q-26 45 -66 71h375q13 0 24 2.5t26 8.5t21 8q8 3 25 9t27 11v-1386v-16v-22.5t1 -24t3.5 -27.5t7.5 -25t12 -25q11 -22 25 -35t39 -28z" />
    <glyph glyph-name="m" unicode="m" horiz-adv-x="2041" 
d="M1970 0h-586q26 17 40 33.5t28 44.5q5 12 8.5 22.5t4.5 24.5t1.5 20.5t0 25t-0.5 24.5v526q0 136 -118 139q-56 2 -92.5 -37t-36.5 -102v-516q0 -49 5 -78t25 -61q13 -22 27.5 -36t38.5 -30h-586q30 19 47 38.5t27 49.5q6 15 9 30.5t3.5 24t0 29.5t-0.5 29v524
q0 55 -36.5 95.5t-88.5 39.5q-53 -1 -87 -40.5t-34 -94.5v-522q0 -90 21 -131q11 -23 26 -37.5t43 -34.5h-577q26 20 40.5 37t27.5 45l5.5 16.5t4 17t2.5 14t1.5 16.5t0.5 15v18.5v17.5v718q0 52 -19 86q-27 55 -86 78h375q33 0 84 21q24 7 49 24v-157q102 130 277 133
q175 0 286 -131q57 59 147.5 97t188.5 34q82 -4 151.5 -24.5t128.5 -60t92.5 -107t33.5 -156.5v-553q0 -46 6.5 -75t26.5 -61q13 -22 27 -35t38 -28z" />
    <glyph glyph-name="n" unicode="n" horiz-adv-x="1431" 
d="M1360 0h-594q30 21 45.5 38t26.5 46q3 7 5.5 13t4.5 13.5t3.5 12.5t2.5 13.5t1.5 12t0.5 13.5v13v15v15v518q0 50 -46 99t-105 48q-60 0 -103 -42.5t-43 -102.5v-522q0 -89 23 -129q24 -47 77 -74l-593 -2q28 20 43 37t28 45q15 38 15 115v714q0 43 -19 88q-22 46 -70 82
h320q67 0 111 15q29 8 67 30v-133q73 71 151.5 99t180.5 18q163 -14 268 -109.5t105 -263.5l2 -536v-26v-26.5t1.5 -21.5t4 -24t7.5 -20.5t13 -23.5q19 -31 66 -57z" />
    <glyph glyph-name="o" unicode="o" 
d="M1243 551q0 -116 -47.5 -224t-127 -187.5t-189.5 -127t-228 -47.5q-122 0 -228.5 37t-187 107t-126.5 178t-46 241q0 118 45 222t122 177.5t185 116.5t230 43q165 0 300 -63t216.5 -186.5t81.5 -286.5zM858 528q0 164 -53 253t-160 89q-203 0 -203 -368
q0 -66 10.5 -120.5t33.5 -101t65 -72.5t100 -26q112 0 159.5 88.5t47.5 257.5z" />
    <glyph glyph-name="p" unicode="p" horiz-adv-x="1445" 
d="M1368 549q-2 -155 -61 -285.5t-173 -213.5t-262 -89q-20 0 -64.5 -1.5t-59.5 -0.5l-50 4l-84 227q51 -20 82 -18q58 3 100.5 25t67 53t39 78.5t19.5 89.5t6 98q2 62 -8.5 122t-33 114t-65 86t-98.5 30q-82 -6 -120 -57.5t-38 -151.5v-983q0 -29 1 -43t6.5 -35t17.5 -40
q19 -30 67 -60h-585q31 25 51 66q2 4 11 20.5t12 23t6.5 20t3.5 26.5v1159l1 21q1 20 0.5 38.5t-2.5 43.5t-8 48.5t-16 41.5q-23 42 -65 73h397q10 0 18.5 3t19.5 8t19 8q15 3 45 20v-149l33 37q89 97 258 104q116 4 214.5 -41.5t163 -124t100.5 -181.5t34 -214z" />
    <glyph glyph-name="q" unicode="q" horiz-adv-x="1452" 
d="M1382 1079q-45 -32 -79 -84q-8 -14 -13.5 -33.5t-8 -36.5t-3.5 -37.5t-1 -33t0.5 -26.5t0.5 -15l-2 -1159q0 -45 31 -90q14 -18 23 -27.5t19 -17.5t19 -17h-592q45 27 68 56q28 42 28 127v1149l-75 18q-17 5 -41 5.5t-58.5 -5t-67.5 -26t-62.5 -53.5t-49 -93t-22.5 -139
q-3 -133 65 -245t170 -122l66 -6l-107 -195q-11 0 -31 -4q-4 -1 -11.5 -4.5t-14.5 -3.5l-105 4q-89 3 -173.5 46.5t-148.5 115.5t-102 175t-36 216q3 110 52.5 214.5t125.5 178.5t169.5 119.5t182.5 46.5z" />
    <glyph glyph-name="r" unicode="r" horiz-adv-x="968" 
d="M893 1092l-2 -287q-56 26 -125 26q-75 0 -142 -49t-67 -106l6 -494v-16.5v-18.5t1 -17.5t3 -20.5t5.5 -19.5t9.5 -21.5q14 -25 28 -38.5t39 -29.5l-586 -6q50 27 76 80q11 20 16 39.5t6 33t1 41.5l-6 713q0 22 -7.5 62t-15.5 51q-6 7 -16.5 23t-19.5 25.5t-21 16.5h366
q19 0 66 15q26 9 49 26v-174q26 57 64 91.5t98 54.5q54 14 103.5 11t70.5 -11z" />
    <glyph glyph-name="s" unicode="s" horiz-adv-x="1169" 
d="M1098 332q1 -93 -47 -165t-130 -114.5t-190.5 -64t-231 -19t-249.5 26.5l-129 27l-51 260l127 -62q81 -40 184 -56.5t183.5 4.5t84.5 83q2 23 -11.5 44.5t-31.5 36t-44.5 28t-39.5 18.5l-26 10l-172 76q-110 45 -172.5 111.5t-61.5 168.5q1 69 29.5 126t75.5 95.5
t109.5 65.5t129 40t137.5 15q90 1 206.5 -12t137.5 -20l56 -11l2 -241l-78 45q-37 20 -91.5 33.5t-70.5 13.5q-85 5 -134.5 -8t-57.5 -62q-7 -33 20 -57t75 -41t108 -34.5t122 -45.5t113 -65.5t84.5 -101.5t34.5 -148z" />
    <glyph glyph-name="t" unicode="t" horiz-adv-x="952" 
d="M874 170l-102 -193l-63 -8q-28 -3 -60 -4.5t-93.5 -0.5t-121.5 17t-102 46q-117 84 -117 206v623h-143v158q75 9 128.5 33t110.5 75q68 60 101.5 125.5t42.5 155.5h163v-334h256v-289q-22 28 -45 41q-48 31 -84 31h-127v-518q0 -40 27 -75.5t57 -49.5q15 -8 31 -13
t26.5 -7t30 -4.5t31.5 -4.5z" />
    <glyph glyph-name="u" unicode="u" horiz-adv-x="1378" 
d="M1315 0h-494v121q-61 -81 -130.5 -113.5t-186.5 -38.5q-145 -6 -252 77t-107 228v635q0 65 -24 109q-22 40 -58 61h371q4 0 13 2.5t23.5 6.5t23.5 6q27 7 55 24v-770q0 -49 34 -94t87 -51q59 -6 105 38t46 105v535q0 84 -26 131q-23 39 -66 67h371q12 0 23 2t25 6.5
t23 6.5q35 11 52 18v-944q0 -45 20 -84q20 -49 72 -84z" />
    <glyph glyph-name="v" unicode="v" horiz-adv-x="1300" 
d="M1233 1079l-442 -1159q-4 1 -37 10q-30 8 -99 45l-39 21q-75 43 -120 92q-6 8 -18 22t-19.5 25t-12.5 25l-282 755q-26 70 -53 107q-24 34 -54 57h377q13 0 39 11q28 12 43 30l252 -698l164 457q21 57 14 112q-6 41 -31 60l-34 30z" />
    <glyph glyph-name="w" unicode="w" horiz-adv-x="2123" 
d="M2046 1079l-467 -1142q-13 3 -55 16q-49 14 -88 33l-95 45q-36 16 -81 57q-39 43 -60 109l-125 352l-262 -612q-26 10 -41 14q-65 19 -102 37l-39 18q-11 6 -32 16t-32 16t-26 17t-27 25q-5 7 -14 17t-13.5 15.5t-10 15t-9.5 19.5l-303 750q-25 69 -55 113q-20 32 -54 69
h389q20 0 64 19q20 5 45 24l244 -673l145 370q4 10 5.5 19.5t-0.5 22t-3 17.5t-7 22.5t-7 21.5q-12 38 -38.5 80t-43.5 51l-43 26h518l225 -633l164 424q15 35 -2 97q-18 72 -78 114z" />
    <glyph glyph-name="x" unicode="x" horiz-adv-x="1349" 
d="M1278 0h-526q-31 69 -62 127q-42 83 -129 225l-129 -188q-13 -21 -11 -52t17 -55q8 -16 23 -31.5t22 -19.5l-426 -6l398 539l-299 469q-16 26 -54 49q-18 15 -32 22h522q3 -53 20 -98q12 -38 40 -83t44 -64l41 -50l86 134q11 16 16 42t-1 56q-7 31 -25 45l-25 18h402
l-338 -469l332 -526q8 -15 41 -45q31 -27 53 -39z" />
    <glyph glyph-name="y" unicode="y" horiz-adv-x="1353" 
d="M1286 1079l-514 -1335q-16 -40 -37.5 -65t-60.5 -56q-42 -37 -78 -56.5t-88 -31.5l-109 -20q-97 -19 -166 -19q-43 0 -98 6q20 45 98 136q29 34 70 52.5t77 24t80.5 22.5t78.5 48q40 39 61.5 78t42.5 102l12 45q-34 20 -82 64q-38 36 -58.5 70t-47.5 96l-299 714
q-4 13 -20.5 39.5t-36.5 44.5q-29 26 -60 41h522l254 -643l160 469q10 28 4 72q-1 5 -2 13.5t-2 12.5t-3.5 10t-6.5 11l-43 55h352z" />
    <glyph glyph-name="z" unicode="z" horiz-adv-x="1099" 
d="M1030 256l-90 -256h-877l482 909q-3 2 -41.5 5t-90 4t-96.5 -7q-86 -20 -127 -43l-57 -28l86 239h750l-482 -909q107 -24 252 -14q71 5 119.5 17.5t106.5 43.5z" />
    <glyph glyph-name="braceleft" unicode="{" horiz-adv-x="696" 
d="M625 1597l-39 -18q-54 -26 -86 -63q-20 -24 -30.5 -62t-10.5 -57v-492q0 -7 -4.5 -33.5t-20 -69t-37.5 -65.5q-62 -64 -155 -73q35 -3 81 -24.5t76 -55.5q21 -24 34.5 -67.5t16.5 -69t3 -35.5v-496q0 -18 11.5 -55.5t31.5 -63.5q29 -36 84 -63l41 -19l-113 4
q-37 0 -97 13t-98 43q-47 36 -69.5 76t-22.5 94v477q0 67 -17 112.5t-65 81.5t-100 46q69 8 115 49q29 24 42.5 57t15 55.5t1.5 73.5l-2 465q0 55 26 96.5t78 81.5q28 21 73.5 34t74.5 16t51 3z" />
    <glyph glyph-name="bar" unicode="|" horiz-adv-x="321" 
d="M217 -498h-129v2048h129v-2048z" />
    <glyph glyph-name="braceright" unicode="}" horiz-adv-x="710" 
d="M651 662q-49 -10 -100 -46q-47 -36 -64.5 -82t-17.5 -112v-477q0 -54 -22.5 -94t-69.5 -76q-39 -30 -98 -43t-95 -13l-114 -4l41 19q55 27 84 63q22 26 33.5 63.5t11.5 55.5v496q0 12 2.5 36t15 68t33.5 68q31 34 77 55.5t81 24.5q-37 4 -81 22.5t-75 50.5
q-22 23 -37 65.5t-19 68.5t-4 34v492q0 18 -11.5 56.5t-31.5 62.5q-32 37 -86 63l-41 18l115 -4q38 0 99 -12t100 -41q51 -38 74.5 -79.5t23.5 -98.5l4 -465q0 -50 2 -73.5t15.5 -56t42.5 -56.5q43 -41 112 -49z" />
    <glyph glyph-name="asciitilde" unicode="~" horiz-adv-x="1353" 
d="M1106 494l-29 -35q-41 -56 -83 -89t-101 -44q-73 -10 -174 30l-64 23q-1 0 -39 15.5t-65 22t-51 3.5q-68 -5 -115 -82l-20 -35l-109 66l31 43q41 54 83.5 87t100.5 44q70 12 176 -25l66 -24q1 -1 16 -7.5t20.5 -8.5t23 -9t25 -8t26 -6.5t25 -4t23.5 0.5q38 4 57 18.5
t50 62.5l18 25z" />
    <glyph glyph-name="nbspace" unicode="&#xa0;" horiz-adv-x="1288" 
 />
    <glyph glyph-name="exclamdown" unicode="&#xa1;" horiz-adv-x="610" 
d="M508 836q2 -90 -64.5 -158.5t-156.5 -65.5q-87 1 -148 65t-61 152q0 89 67 153.5t158 61.5q85 -3 144.5 -63t60.5 -145zM528 -498h-450l59 1035h334z" />
    <glyph glyph-name="cent" unicode="&#xa2;" horiz-adv-x="1083" 
d="M1004 510l-13 -221q-53 -22 -119 -39q-31 -8 -100 -19v-233h-180v231q-148 12 -269 92t-189 208t-66 276q1 102 43 202t107.5 173.5t149.5 121.5t167 54l55 4v190h178v-190q37 1 115 -6q40 -7 110 -27v-244l-59 31q-10 6 -22 10.5t-21.5 7.5t-25.5 5.5t-25 4t-28.5 3
t-27 2t-31 1.5t-30.5 1q-60 3 -107.5 -16.5t-76.5 -53t-47.5 -81.5t-26 -97t-8.5 -104q0 -57 5.5 -103.5t22.5 -95t45.5 -81.5t77 -54t113.5 -21q85 0 209 39z" />
    <glyph glyph-name="sterling" unicode="&#xa3;" horiz-adv-x="1320" 
d="M1227 12q-99 -36 -183 -41q-92 -6 -161 11t-168 61l-56 25l-63 -39q-64 -42 -157 -52.5t-177 10t-143 79t-56 141.5q4 80 47.5 140t107.5 88t141 28t147 -33l31 -12q-2 27 -15 67q-12 50 -45 103l-121 184h-237v186l143 3l-20 38q-18 34 -20.5 86t8 109t38.5 116.5
t68 104.5q59 68 152 107t181.5 48t180 4.5t144.5 -13.5t79 -17l47 -14l-4 -270l-80 47q-89 56 -191 44.5t-167 -91.5q-52 -67 -56 -145t42 -150h325v-193h-244l33 -59q1 -2 7.5 -15.5t12 -24.5t14 -30t14.5 -37t12.5 -38t10 -41t3.5 -40q3 -75 -31 -141q19 -8 46.5 -17
t79 -18.5t89.5 -5.5q53 7 88.5 19t71.5 41l31 24v-377zM463 203l-41 24q-18 11 -53 16t-65.5 -4.5t-29.5 -35.5q1 -29 34.5 -40t69.5 -6.5t50 15.5z" />
    <glyph glyph-name="yen" unicode="&#xa5;" horiz-adv-x="1425" 
d="M1348 1548l-254 -520h231v-176h-315l-76 -156h391v-174h-405v-274q0 -54 10.5 -93t38.5 -83q24 -43 61 -78h-592q41 23 64 49q61 66 61 166l-2 313h-399v174h387l-74 160h-311v174h215l-154 326q-27 55 -80 114q-41 47 -82 76h465l283 -585l160 358q11 27 15 37.5
t7.5 30.5t1.5 40q-9 79 -80 121h433z" />
    <glyph glyph-name="section" unicode="&#xa7;" horiz-adv-x="1140" 
d="M1067 575q-9 -80 -35.5 -136t-83.5 -113l25 -25q56 -55 59 -189t-61 -227q-275 -365 -781 -196l-118 41v370l112 -67q84 -51 183 -77t187.5 -7t113.5 96q20 58 -16 100t-120 86l-133 66q-74 39 -125 73.5t-98 82.5t-70.5 108.5t-23.5 134.5q0 49 9 84.5t32 83.5
q17 34 45.5 71t40.5 46l-33 51q-47 80 -34 192.5t69 174.5q55 62 132 97t141.5 46.5t161.5 4.5t145 -15.5t138 -27.5l15 -3l35 -8v-377l-80 66q-27 22 -79 44.5t-113 38t-121 7.5t-92 -45q-18 -26 -1 -57.5t50 -45.5l153 -82q69 -36 120.5 -67.5t105 -76.5t85.5 -90.5
t49.5 -106t10.5 -126.5zM745 537q6 33 -4 61t-37.5 51.5t-50 38t-61.5 35.5l-152 84q-22 -24 -22 -66q2 -52 71 -96l123 -78q44 -27 86 -47q8 -3 20.5 -7.5t18.5 -6.5q8 24 8 31z" />
    <glyph glyph-name="dieresis" unicode="&#xa8;" horiz-adv-x="966" 
d="M827 1358q0 -60 -43 -104t-104 -44q-60 0 -102.5 44t-42.5 104t42.5 103.5t102.5 43.5q61 0 104 -43.5t43 -103.5zM442 1358q0 -62 -43 -105t-106 -43q-60 0 -103 43.5t-43 104.5t43 104t103 43q63 0 106 -42.5t43 -104.5z" />
    <glyph glyph-name="copyright" unicode="&#xa9;" horiz-adv-x="1689" 
d="M844 0q-187 0 -339 67t-245 176t-143.5 248.5t-50.5 285.5t50.5 285.5t143.5 248.5t245 176t339 67q188 0 340 -67t245 -176t143.5 -248.5t50.5 -285.5t-50.5 -285.5t-143.5 -248.5t-245 -176t-340 -67zM844 84q167 0 302.5 59.5t219 157.5t128.5 222.5t45 255t-45 255
t-128.5 222.5t-219 157.5t-302.5 59.5t-302.5 -59.5t-219 -157.5t-128.5 -222.5t-45 -255t45 -255t128.5 -222.5t219 -157.5t302.5 -59.5zM1176 453l-25 -54l-27 -14q-49 -23 -118.5 -41.5t-133.5 -15.5q-204 6 -332 108t-147 279q-12 111 16 203t83.5 150t120.5 93.5
t137 48.5q103 17 241 -4q87 -17 160 -39l18 -4l-26 -184h-39v76v14q0 26 -51 52.5t-97 33.5q-21 6 -65 9.5t-107 -3.5q-105 -23 -169.5 -90.5t-84.5 -153.5t-8 -188q17 -141 119 -236.5t238 -101.5q60 -3 112 6.5t80 20.5t66 31l28 16z" />
    <glyph glyph-name="ordfeminine" unicode="&#xaa;" horiz-adv-x="870" 
d="M793 965l-58 -117l-26 -2q-62 -7 -110.5 6t-100.5 49q-29 22 -45.5 66t-16.5 71v117l-69 -33q-24 -12 -38 -33t-14 -45q0 -38 37 -64t74 -11l-59 -121q-51 -2 -82 -2q-95 0 -158.5 53t-63.5 154q0 36 15.5 65t35.5 46.5t57.5 33.5t61 23t66.5 18q35 8 55 14t43 15
t33 20.5t10 26.5q0 31 -19.5 47t-76.5 16q-52 0 -98 -16l-68 -29l64 156l69 12q58 6 119 6q125 0 186.5 -63t61.5 -164v-209q0 -60 43 -88q32 -22 72 -18zM686 758l-51 -146q-3 -10 -17 -24q-2 -6 -16 -3l-14 3q-32 -5 -134.5 -3t-134.5 1q-39 -3 -55 -11l-24 -12q0 8 12 39
t26.5 67.5t18.5 47.5q2 5 4.5 8.5t6 4.5t5.5 1.5t6 0t5 -0.5l290 -2q13 0 37 12q11 3 35 17z" />
    <glyph glyph-name="guillemotleft" unicode="&#xab;" horiz-adv-x="1253" 
d="M1153 881l-336 -242l330 -233v-244l-469 362v236l475 352v-231zM557 881l-338 -242l332 -233v-244l-469 362v236l475 352v-231z" />
    <glyph glyph-name="logicalnot" unicode="&#xac;" horiz-adv-x="1630" 
d="M1552 0h-122v518h-1362v113h1484v-631z" />
    <glyph glyph-name="registered" unicode="&#xae;" horiz-adv-x="1693" 
d="M846 0q-187 0 -339 67t-245 176t-143.5 248.5t-50.5 285.5t50.5 285.5t143.5 248.5t245 176t339 67t339 -67t245 -176t143.5 -248.5t50.5 -285.5t-50.5 -285.5t-143.5 -248.5t-245 -176t-339 -67zM846 84q167 0 302.5 59.5t218.5 157.5t128 222.5t45 255t-45 255
t-128 222.5t-218.5 157.5t-302.5 59.5q-168 0 -303.5 -59.5t-219 -157.5t-129 -222.5t-45.5 -255t45.5 -255t129 -222.5t219 -157.5t303.5 -59.5zM1264 350h-11q-13 0 -34.5 2t-36.5 2q-14 0 -68 -4l-14 -2l-342 443l6 18l41 -2q90 -5 163 50t66 138q-14 139 -139 158
q-52 6 -95.5 2t-64.5 -10l-18 -6v-682q0 -31 16 -47q15 -19 68 -19l28 -4v-35h-18q-1 0 -59 4t-93 4q-34 0 -90 -4t-63 -4h-21v37l35 2q45 0 62 19q16 16 16 47v641q0 15 -2 24t-4 13t-10 16q-14 18 -84 18h-13v35h21q4 0 30.5 -1t62.5 -2t63 -1q199 0 227 4h20
q72 5 141 -25t95 -96q27 -73 -1 -140.5t-100 -115.5q-38 -25 -116 -45l-8 -4l274 -360q17 -17 31 -25q24 -8 32 -8h7v-35z" />
    <glyph glyph-name="degree" unicode="&#xb0;" horiz-adv-x="843" 
d="M774 1200q-1 -76 -25.5 -139.5t-65.5 -104t-94.5 -68.5t-112 -33.5t-117 1.5t-111 36t-93 70.5t-64.5 105.5t-23 140t26 139.5t66.5 104.5t94.5 69t112 33.5t117 -1.5t111 -36.5t93 -71t63.5 -105.5t22.5 -140zM678 1200q1 56 -16.5 103.5t-47 78t-68.5 52t-82 26.5
t-86 1t-82.5 -24.5t-70 -50.5t-48.5 -77t-19 -103t16.5 -103.5t47 -78t68.5 -52t82 -26.5t86 -1t82.5 24.5t70 50.5t48.5 77t19 103z" />
    <glyph glyph-name="plusminus" unicode="&#xb1;" horiz-adv-x="1146" 
d="M1063 563h-442v-440h-113v440h-434v123h434v438h119v-440h436v-121zM1063 -4h-991v92h991v-92z" />
    <glyph glyph-name="acute" unicode="&#xb4;" horiz-adv-x="624" 
d="M571 1386l-405 -159l-105 61l426 250z" />
    <glyph glyph-name="mu" unicode="&#xb5;" horiz-adv-x="1267" 
d="M1196 215l-14 -65q-18 -87 -105.5 -144t-154.5 -45q-70 8 -128.5 70t-62.5 143l-55 -55q-64 -66 -141.5 -110t-133.5 -44q-53 2 -127.5 36t-117.5 91v-76q0 -68 36.5 -168.5t38.5 -183.5q2 -56 -28.5 -99t-79.5 -42q-45 1 -74 39t-31 88q-2 76 29.5 160t36.5 129
q4 46 4 59v1081h182v-743q0 -93 56 -163t141 -69q54 1 116 32t107.5 85.5t46.5 112.5v745h178v-839q0 -72 36.5 -130t95.5 -47q70 11 94 95l16 57h39z" />
    <glyph glyph-name="paragraph" unicode="&#xb6;" horiz-adv-x="1228" 
d="M1143 1548q-42 -26 -68 -73q-20 -44 -20 -97v-1456q0 -56 16 -96q18 -55 64 -98h-295v1603h-152v-1603h-293q35 22 54 59q5 9 9 18t6.5 15t4 16.5t2.5 15t1.5 17t0.5 16v19v18.5l2 768q-180 6 -298.5 132.5t-115.5 310.5q1 106 56.5 203.5t142.5 155.5t178 58z" />
    <glyph glyph-name="periodcentered" unicode="&#xb7;" horiz-adv-x="475" 
d="M258 651q-45 -6 -83 7t-60 39.5t-35.5 60.5t-9.5 70t18 67.5t47 54.5t78 29t83 -7t60 -39t35 -60t9.5 -70t-18 -67.5t-47 -55t-77.5 -29.5z" />
    <glyph glyph-name="ordmasculine" unicode="&#xba;" horiz-adv-x="849" 
d="M784 1227q0 -141 -104.5 -244.5t-247.5 -103.5q-151 0 -250.5 89t-99.5 246q0 141 100 236.5t246 95.5q152 0 254 -86.5t102 -232.5zM555 1214q0 203 -127 203q-64 0 -92.5 -60t-28.5 -159q0 -82 29.5 -136t95.5 -54t94.5 52.5t28.5 153.5zM680 772l-49 -127
q-3 -10 -17 -24q-4 -3 -9 -3t-11 1.5t-10 1.5q-55 -2 -138 -2t-120 -1q-36 0 -56 -6l-24 -12q1 7 12 33.5t26.5 61t18.5 42.5q2 5 3.5 7.5t5.5 4t5 1.5h6.5h6.5l280 -2q2 0 37 10q18 9 33 14z" />
    <glyph glyph-name="guillemotright" unicode="&#xbb;" horiz-adv-x="1253" 
d="M1167 524l-469 -362v244l330 233l-336 242v231l475 -352v-236zM569 524l-467 -362v244l330 233l-338 242v231l475 -352v-236z" />
    <glyph glyph-name="questiondown" unicode="&#xbf;" horiz-adv-x="1071" 
d="M836 887q2 -60 -20.5 -108.5t-60.5 -74.5t-84.5 -39t-94.5 -3t-88 33t-66.5 69.5t-28.5 107.5q-1 53 16.5 96.5t48 71t69.5 43t80.5 17t82 -11.5t72 -38.5t52 -67.5t22.5 -95zM991 -174l-94 -281l-94 -24q-60 -16 -132 -21t-156.5 5t-160 36.5t-142 82.5t-103.5 134
q-83 172 -13.5 317.5t314.5 317.5q38 26 56 59t17.5 56.5t-3.5 47.5t-1 30h307q11 -78 5 -144q-5 -54 -42.5 -108t-84 -99t-90.5 -92.5t-65.5 -107t-4.5 -123.5q13 -49 66 -91.5t133 -59t176 21.5z" />
    <glyph glyph-name="Agrave" unicode="&#xc0;" horiz-adv-x="1798" 
d="M1731 -6h-736q71 22 103 84q29 56 2 141l-84 248h-465l-84 -246q-27 -87 0 -143q27 -61 104 -84h-520q21 17 58 63q3 3 12.5 14.5t12.5 15.5t10.5 13.5t11 15t9 14.5t9.5 17.5t8 18.5l410 1180q8 38 6 55q0 50 -30.5 90.5t-73.5 52.5h589l484 -1333q17 -47 69 -119
q36 -48 95 -98zM944 694l-166 449l-162 -449h328zM1081 1733l-106 -60l-406 158l86 154z" />
    <glyph glyph-name="Aacute" unicode="&#xc1;" horiz-adv-x="1808" 
d="M1735 0h-736q70 20 103 84q31 60 2 141l-82 248h-465l-84 -246q-27 -85 -2 -143q28 -61 107 -84h-521q21 17 58 63q16 19 28.5 34t24.5 34t20 41l408 1180q10 33 8 53q0 51 -31 91t-75 54h592l483 -1335q18 -50 69 -117q34 -45 93 -98zM948 698l-164 451l-163 -451h327z
M1092 1845l-406 -159l-104 61l426 250z" />
    <glyph glyph-name="Acircumflex" unicode="&#xc2;" horiz-adv-x="1796" 
d="M1735 0h-736q70 20 103 84q31 60 2 141l-82 248h-465l-84 -246q-27 -85 -2 -143q28 -61 107 -84h-521q21 17 58 63q16 19 28.5 34t24.5 34t20 41l408 1180q10 33 8 53q0 51 -31 91t-75 54h592l483 -1335q18 -50 69 -117q34 -45 93 -98zM948 698l-164 451l-163 -451h327z
M1241 1731l-100 -54l-307 99l-302 -99l-100 54l406 211z" />
    <glyph glyph-name="Atilde" unicode="&#xc3;" horiz-adv-x="1798" 
d="M1735 -14h-736q69 16 103 82q31 61 2 143l-82 248h-465l-84 -246q-27 -86 -2 -145q29 -64 107 -82h-521q26 20 58 61l15 18t14 18t12 16.5t12.5 18t10 18.5t9.5 22l408 1177q10 34 8 56q0 50 -31 90.5t-75 52.5h592l483 -1333q18 -50 69 -117q36 -50 93 -98zM948 684
l-164 449l-163 -449h327zM1284 1823l-29 -37q-43 -56 -84.5 -88.5t-99.5 -42.5q-13 -5 -35.5 -3t-35 3t-33.5 6.5t-29.5 8t-24 8t-16.5 5.5l-63 23l-30 12q-29 13 -43 18t-39.5 10t-43.5 3q-68 -7 -115 -84l-20 -35l-109 68l31 41q41 55 83.5 88.5t100.5 44.5q45 8 95.5 -3
t80.5 -24l66 -24q2 -1 30 -11.5t44 -16t41 -10.5t43 -3q38 3 57 17.5t51 62.5l19 24z" />
    <glyph glyph-name="Adieresis" unicode="&#xc4;" horiz-adv-x="1769" 
d="M1161 1845q0 -60 -43 -103.5t-104 -43.5q-60 0 -103 43.5t-43 103.5t43 104t103 44q61 0 104 -44t43 -104zM774 1845q0 -62 -42 -104.5t-105 -42.5q-61 0 -103.5 42.5t-42.5 104.5t42.5 105t103.5 43q63 0 105 -43t42 -105zM1724 -6h-735q70 20 103 84q29 56 2 141
l-84 248h-465l-82 -246q-28 -81 -2 -143q28 -62 106 -84h-522q27 22 57 63q2 3 10.5 12t10.5 11.5t9 10.5t9.5 11.5t8 10.5t8 12t6.5 12t6.5 14t5.5 15l410 1180q8 27 8 55q0 49 -32 89.5t-75 53.5h590l484 -1333q17 -42 69 -119q38 -50 94 -98zM938 694l-166 449l-162 -449
h328z" />
    <glyph glyph-name="Aring" unicode="&#xc5;" horiz-adv-x="1798" 
d="M1083 1935q0 -103 -72.5 -176t-176.5 -73q-103 0 -176.5 73t-73.5 176q0 104 73.5 178t176.5 74q104 0 176.5 -73.5t72.5 -178.5zM1733 0h-734q69 21 101 84q29 56 2 141l-82 248h-465l-84 -246q-15 -43 -16 -71.5t16 -69.5q17 -34 46.5 -55.5t57.5 -28.5h-520
q30 26 58 61q16 19 28.5 34t24.5 34t20 41l408 1180q10 33 8 53q0 51 -30.5 90t-75.5 53h591l484 -1333q21 -58 69 -117q34 -45 93 -98zM958 1935q0 54 -35.5 90.5t-88.5 36.5q-52 0 -88.5 -37t-36.5 -90q0 -51 37 -88t88 -37q52 0 88 37t36 88zM948 686l-166 463l-164 -463
h330z" />
    <glyph glyph-name="AE" unicode="&#xc6;" horiz-adv-x="2318" 
d="M2243 352l-99 -356h-1052q32 18 57 43q32 35 44.5 70.5t12.5 85.5v278h-475l-174 -246q-59 -81 -51 -147q8 -64 74 -84h-521q37 24 80 61q72 60 111 115l840 1184q24 40 28 55q7 31 7.5 52.5t-2.5 35t-13 23t-20 14t-27 10.5h913q21 0 33 2q25 10 27 11v-359
q-24 43 -58 66q-23 17 -57 28t-47 11h-236v-381h228q38 0 61 4q5 2 15.5 6t15.5 6v-350q-16 48 -60 76q-39 28 -104 28h-156l-2 -446q54 -22 144.5 -32.5t163.5 -0.5q35 4 63 9t48 8.5t40.5 13t31 13.5t29 18.5t25.5 20t29.5 26t32.5 28.5zM1202 686v463l-330 -463h330z" />
    <glyph glyph-name="Ccedilla" unicode="&#xc7;" horiz-adv-x="1597" 
d="M1526 354l-123 -331q-126 -29 -180 -35q-111 -15 -190.5 -17.5t-190.5 6.5l-21 -73l13 -6q71 -28 103 -60t36 -88q5 -55 -38.5 -98.5t-101.5 -63.5t-108 -18q-61 0 -109 22l-38 127l51 -20q39 -16 89.5 -18.5t86.5 13t29 46.5q-9 39 -41 53.5t-97 9.5l-41 -4l70 187
q-57 10 -114.5 27t-125 49t-126.5 74t-115.5 105.5t-96.5 138.5t-63.5 178t-22.5 220q1 144 42.5 272t123.5 231t195.5 173.5t265.5 100t326 10.5l297 -35l-2 -326q-48 50 -157.5 96t-219.5 43q-63 -2 -116 -15.5t-92 -34.5t-70.5 -53t-52 -65t-36 -76.5t-24 -81
t-13.5 -85.5t-6.5 -82.5t-1.5 -79.5q-1 -88 16 -169t55.5 -153.5t94.5 -125.5t138.5 -83.5t183.5 -29.5q94 1 164.5 17.5t170.5 54.5z" />
    <glyph glyph-name="Egrave" unicode="&#xc8;" horiz-adv-x="1306" 
d="M1231 358l-98 -358h-1053q39 19 57 39q56 61 56 162v1173q0 10 -9 45.5t-22 55.5q-46 57 -76 75h879q28 0 34 2q14 3 25 11v-361q-18 43 -57 70q-23 17 -56.5 27t-48.5 10h-233v-379h225q46 0 61 4q5 2 15.5 6t15.5 6v-352q-17 49 -59 76q-39 28 -105 28h-155v-444
q53 -21 142 -32.5t163 -4.5q35 4 63 9.5t48 9.5t41 14t30.5 13.5t29.5 19t25.5 20t29.5 26.5t32 29zM850 1749l-105 -59l-405 157l84 154z" />
    <glyph glyph-name="Eacute" unicode="&#xc9;" horiz-adv-x="1286" 
d="M1202 360l-98 -358h-1053q40 19 58 39q55 57 55 162v1173q0 10 -9 45.5t-22 55.5q-46 57 -76 75h879q29 0 35 2q11 2 26 11v-361q-18 38 -59 70q-23 17 -56 27t-48 10h-234v-379h225q47 0 62 4q5 2 15.5 6t15.5 6v-352q-16 48 -60 76q-39 28 -104 28h-156v-444
q53 -21 142 -32.5t163 -4.5q35 4 63 9.5t48 9.5t41 14t30.5 13.5t29.5 19t25.5 20t29.5 26.5t32 29zM813 1845l-405 -159l-107 61l426 250z" />
    <glyph glyph-name="Ecircumflex" unicode="&#xca;" horiz-adv-x="1318" 
d="M1231 358l-98 -358h-1053q39 19 57 39q56 61 56 162v1173q0 10 -9 45.5t-22 55.5q-46 57 -76 75h879q28 0 34 2q14 3 25 11v-361q-18 43 -57 70q-23 17 -56.5 27t-48.5 10h-233v-379h225q46 0 61 4q5 2 15.5 6t15.5 6v-352q-17 49 -59 76q-39 28 -105 28h-155v-444
q53 -21 142 -32.5t163 -4.5q35 4 63 9.5t48 9.5t41 14t30.5 13.5t29.5 19t25.5 20t29.5 26.5t32 29zM995 1739l-100 -53l-307 98l-301 -98l-101 53l406 211z" />
    <glyph glyph-name="Edieresis" unicode="&#xcb;" horiz-adv-x="1306" 
d="M1231 358l-98 -358h-1053q39 19 57 39q56 61 56 162v1173q0 10 -9 45.5t-22 55.5q-46 57 -76 75h879q28 0 34 2q14 3 25 11v-361q-18 43 -57 70q-23 17 -56.5 27t-48.5 10h-233v-379h225q46 0 61 4q5 2 15.5 6t15.5 6v-352q-17 49 -59 76q-39 28 -105 28h-155v-444
q53 -21 142 -32.5t163 -4.5q35 4 63 9.5t48 9.5t41 14t30.5 13.5t29.5 19t25.5 20t29.5 26.5t32 29zM946 1851q0 -60 -43 -103.5t-104 -43.5q-60 0 -103 43.5t-43 103.5t43 104t103 44q61 0 104 -44t43 -104zM561 1851q0 -62 -43 -104.5t-106 -42.5q-60 0 -103 43t-43 104
t43 104.5t103 43.5q63 0 106 -43t43 -105z" />
    <glyph glyph-name="Igrave" unicode="&#xcc;" horiz-adv-x="784" 
d="M729 0h-653q32 18 47 35q61 58 61 162v1177q0 13 -7.5 48t-22.5 55q-22 29 -37.5 44t-42.5 29h655q-15 -9 -29.5 -23.5t-19.5 -21t-23 -30.5q-15 -20 -24.5 -55.5t-9.5 -45.5v-1126v-27.5v-28.5t1 -24t3 -26l5 -22.5t8.5 -25t12.5 -22.5q25 -41 76 -72zM668 1749
l-107 -59l-405 157l84 154z" />
    <glyph glyph-name="Iacute" unicode="&#xcd;" horiz-adv-x="796" 
d="M729 0h-653q32 18 47 35q61 58 61 162v1177q0 13 -7.5 48t-22.5 55q-22 29 -37.5 44t-42.5 29h655q-15 -9 -29.5 -23.5t-19.5 -21t-23 -30.5q-15 -20 -24.5 -55.5t-9.5 -45.5v-1126v-27.5v-28.5t1 -24t3 -26l5 -22.5t8.5 -25t12.5 -22.5q25 -41 76 -72zM664 1835
l-406 -158l-106 60l426 250z" />
    <glyph glyph-name="Icircumflex" unicode="&#xce;" horiz-adv-x="784" 
d="M719 0h-656q30 15 50 35q59 56 59 162v1177q0 12 -8 47.5t-23 55.5q-22 29 -37.5 44t-40.5 29h656q-12 -7 -23.5 -17t-16.5 -15t-18 -22t-16 -21q-15 -20 -24 -55t-9 -46v-1126v-27.5v-28t0.5 -24.5t2.5 -25.5t5.5 -23t9 -25t13.5 -22.5q26 -44 76 -72zM797 1731
l-101 -54l-305 99l-303 -99l-100 54l405 211z" />
    <glyph glyph-name="Idieresis" unicode="&#xcf;" horiz-adv-x="851" 
d="M741 0h-653q27 15 47 35q60 57 60 162v1177q0 14 -7.5 48.5t-23.5 54.5q-22 29 -37.5 44t-40.5 29h655q-10 -6 -18 -12t-16 -14.5t-12 -13.5t-13 -17.5t-12 -17.5q-16 -20 -25.5 -55t-9.5 -46v-1126v-27.5v-28t0.5 -24.5t2.5 -25.5t5.5 -23t9 -25t13.5 -22.5
q27 -45 75 -72zM762 1841q0 -60 -43.5 -103.5t-104.5 -43.5q-60 0 -103.5 43.5t-43.5 103.5t43.5 104t103.5 44q61 0 104.5 -44t43.5 -104zM375 1841q0 -62 -42.5 -104.5t-105.5 -42.5q-61 0 -103 42.5t-42 104.5t42 105t103 43q63 0 105.5 -43t42.5 -105z" />
    <glyph glyph-name="Ntilde" unicode="&#xd1;" horiz-adv-x="1687" 
d="M1599 1534q-35 -31 -69 -100q-35 -66 -35 -131l-2 -1379q-78 14 -132.5 32.5t-119.5 55.5q-108 55 -170 106.5t-104 108.5l-541 721v-721q0 -93 47 -170q22 -34 62 -71h-467q43 40 59 71q47 73 47 172v985q0 61 -6.5 100t-28.5 87q-18 38 -53 82t-47 51h489l721 -963v732
q0 24 -5.5 47.5t-10.5 36t-19 43.5q-34 73 -67 104h452zM1262 1839l-29 -35q-42 -57 -83.5 -90t-100.5 -43q-70 -12 -177 31l-61 22l-39 16q-39 15 -66 21.5t-51 3.5q-70 -8 -114 -84l-23 -32l-106 65l30 43q86 112 185 131q45 8 96 -2.5t80 -23.5l65 -25q2 -1 22 -9
t32.5 -12.5t32.5 -10.5t38 -8.5t33 -0.5q39 4 58.5 19t50.5 63l16 25z" />
    <glyph glyph-name="Ograve" unicode="&#xd2;" horiz-adv-x="1863" 
d="M1804 797q0 -195 -67.5 -353.5t-188.5 -265t-288.5 -164t-366.5 -57.5q-185 0 -342 64.5t-262 174.5t-164 255t-59 305q0 170 64.5 319.5t178.5 258.5t278 172t355 63q247 0 442.5 -95t307.5 -272t112 -405zM1343 690q0 97 -15 188.5t-49 175.5t-83.5 146.5t-123 99.5
t-163.5 37q-95 0 -171 -40.5t-124 -111t-73 -162t-25 -196.5q0 -118 29.5 -231.5t83 -204t135.5 -146t178 -55.5q85 0 153.5 27.5t114 74t76 111t44 136t13.5 151.5zM1196 1747l-104 -59l-406 157l84 154z" />
    <glyph glyph-name="Oacute" unicode="&#xd3;" horiz-adv-x="1863" 
d="M1804 797q0 -195 -67.5 -353.5t-188.5 -265t-288.5 -164t-366.5 -57.5q-185 0 -342 64.5t-262 174.5t-164 255t-59 305q0 170 64.5 319.5t178.5 258.5t278 172t355 63q247 0 442.5 -95t307.5 -272t112 -405zM1343 690q0 97 -15 188.5t-49 175.5t-83.5 146.5t-123 99.5
t-163.5 37q-95 0 -171 -40.5t-124 -111t-73 -162t-25 -196.5q0 -118 29.5 -231.5t83 -204t135.5 -146t178 -55.5q85 0 153.5 27.5t114 74t76 111t44 136t13.5 151.5zM1178 1845l-406 -159l-104 61l426 250z" />
    <glyph glyph-name="Ocircumflex" unicode="&#xd4;" horiz-adv-x="1886" 
d="M1815 807q0 -258 -117.5 -450t-323 -291t-471.5 -99q-185 0 -341.5 65t-261.5 175t-163.5 255.5t-58.5 305.5q0 170 64.5 319.5t178.5 258.5t277.5 172t353.5 63q185 0 344.5 -56t274 -155.5t179.5 -245t65 -317.5zM1354 700q0 98 -15 189.5t-49 176t-83 147t-122.5 100
t-162.5 37.5q-95 0 -171.5 -40.5t-125 -111t-74 -162t-25.5 -196.5q0 -119 30 -232.5t83.5 -204t135 -145.5t177.5 -55q85 0 154 27t114.5 73.5t76 110.5t44 135t13.5 151zM1354 1731l-101 -54l-305 99l-303 -99l-100 54l405 211z" />
    <glyph glyph-name="Otilde" unicode="&#xd5;" horiz-adv-x="1875" 
d="M1778 838q0 -258 -117.5 -450t-323 -291t-471.5 -99q-185 0 -342 64.5t-262 174.5t-164 255t-59 305q0 170 64.5 319.5t178.5 258.5t278 172t355 63q184 0 343.5 -55.5t274 -155.5t180 -245t65.5 -316zM1317 731q0 98 -15 189.5t-49 175.5t-83.5 146t-123 99t-163.5 37
q-95 0 -171.5 -40.5t-124.5 -110.5t-73 -161t-25 -196q0 -119 29.5 -232.5t83 -204t135.5 -145.5t178 -55q85 0 153.5 27t114 73.5t76.5 111t44.5 135.5t13.5 151zM1341 1835l-28 -35q-42 -56 -84.5 -89.5t-102.5 -43.5q-71 -10 -174 31l-61 22l-39 16q-39 15 -66 21.5
t-51 3.5q-66 -5 -117 -82l-20 -34l-106 65l28 43q44 55 86 87.5t101 43.5q44 8 95.5 -3t80.5 -23l65 -25q2 -1 22 -9t32.5 -12.5t32.5 -10.5t38 -8.5t33 -0.5q39 4 58 19t50 63l17 24z" />
    <glyph glyph-name="Odieresis" unicode="&#xd6;" horiz-adv-x="1861" 
d="M1268 1847q0 -60 -44 -103.5t-104 -43.5t-103.5 43.5t-43.5 103.5t43.5 104t103.5 44t104 -44t44 -104zM881 1847q0 -62 -42.5 -104.5t-105.5 -42.5q-61 0 -103 42.5t-42 104.5t42 105t103 43q63 0 105.5 -43t42.5 -105zM1808 799q0 -194 -67.5 -352.5t-188.5 -264.5
t-288.5 -163.5t-366.5 -57.5q-185 0 -342 64.5t-262 174.5t-164 255t-59 305q0 170 64.5 319.5t178.5 258.5t278 172t355 63q185 0 344 -56t273.5 -155.5t179.5 -245t65 -317.5zM1348 694q0 97 -15 188.5t-49.5 175.5t-84 146.5t-123 99.5t-163.5 37q-95 0 -171.5 -40.5
t-124.5 -111t-73.5 -162t-25.5 -196.5q0 -94 18.5 -186t55.5 -173t88 -143t120 -98t146 -36q85 0 153.5 27.5t114 74t76.5 110.5t44.5 135.5t13.5 151.5z" />
    <glyph glyph-name="Oslash" unicode="&#xd8;" horiz-adv-x="1882" 
d="M1804 797q0 -195 -67.5 -353.5t-188.5 -265t-288.5 -164t-366.5 -57.5q-198 0 -365 74l-84 -123h-213l142 213q-146 112 -226.5 279t-80.5 356q0 170 64.5 319.5t178.5 258.5t278 172t355 63q189 0 352 -60l101 152h225l-158 -231q162 -104 252 -266t90 -367zM1130 1264
q-89 73 -221 73q-95 0 -171 -40.5t-124 -111t-73 -162t-25 -196.5q0 -203 78 -370zM1343 690q0 248 -92 422l-546 -819q111 -103 237 -103q85 0 153.5 27.5t114 74t76 111t44 136t13.5 151.5z" />
    <glyph glyph-name="Ugrave" unicode="&#xd9;" horiz-adv-x="1648" 
d="M1575 -2h-533v192q-73 -116 -200.5 -175t-272.5 -33q-161 27 -270 132.5t-109 256.5v991q0 14 -10.5 58.5t-25.5 64.5q-33 43 -86 65h659q-44 -23 -80 -67q-15 -19 -25 -56.5t-10 -48.5v-835q0 -164 47.5 -234t155.5 -73q70 -3 123 41.5t78.5 114t25.5 149.5v839
q0 19 -7.5 49.5t-22.5 49.5q-37 50 -72 71h635q-28 -18 -70 -71q-15 -20 -25 -57.5t-10 -47.5v-1134q0 -50 1 -69.5t9.5 -51.5t26.5 -58q27 -39 68 -63zM1067 1741l-104 -60l-406 158l84 154z" />
    <glyph glyph-name="Uacute" unicode="&#xda;" horiz-adv-x="1648" 
d="M1575 -2h-533v192q-73 -116 -200.5 -175t-272.5 -33q-161 27 -270 132.5t-109 256.5v991q0 14 -10.5 58.5t-25.5 64.5q-33 43 -86 65h659q-44 -23 -80 -67q-15 -19 -25 -56.5t-10 -48.5v-835q0 -164 47.5 -234t155.5 -73q70 -3 123 41.5t78.5 114t25.5 149.5v839
q0 19 -7.5 49.5t-22.5 49.5q-37 50 -72 71h635q-28 -18 -70 -71q-15 -20 -25 -57.5t-10 -47.5v-1134q0 -50 1 -69.5t9.5 -51.5t26.5 -58q27 -39 68 -63zM1090 1845l-406 -159l-104 61l426 250z" />
    <glyph glyph-name="Ucircumflex" unicode="&#xdb;" horiz-adv-x="1648" 
d="M1575 -2h-533v192q-73 -116 -200.5 -175t-272.5 -33q-161 27 -270 132.5t-109 256.5v991q0 14 -10.5 58.5t-25.5 64.5q-33 43 -86 65h659q-44 -23 -80 -67q-15 -19 -25 -56.5t-10 -48.5v-835q0 -164 47.5 -234t155.5 -73q70 -3 123 41.5t78.5 114t25.5 149.5v839
q0 19 -7.5 49.5t-22.5 49.5q-37 50 -72 71h635q-28 -18 -70 -71q-15 -20 -25 -57.5t-10 -47.5v-1134q0 -50 1 -69.5t9.5 -51.5t26.5 -58q27 -39 68 -63zM1251 1731l-100 -54l-307 99l-301 -99l-101 54l406 211z" />
    <glyph glyph-name="Udieresis" unicode="&#xdc;" horiz-adv-x="1646" 
d="M1194 1851q0 -60 -43.5 -103.5t-103.5 -43.5t-104 43.5t-44 103.5t44 104t104 44t103.5 -44t43.5 -104zM807 1851q0 -62 -42.5 -104.5t-105.5 -42.5q-61 0 -103 42.5t-42 104.5t42 105t103 43q63 0 105.5 -43t42.5 -105zM1579 0h-537v197q-73 -118 -201.5 -179
t-273.5 -34q-164 27 -272.5 135.5t-108.5 267.5v1022q0 15 -12 61t-27 68q-39 48 -86 68h664q-40 -21 -80 -70q-16 -20 -26.5 -59t-10.5 -50v-862q0 -170 48 -243t157 -78q72 -2 125.5 44.5t78.5 117.5t25 155v869q0 19 -7.5 50.5t-22.5 51.5q-37 49 -72 74h639
q-39 -31 -72 -76q-13 -20 -22.5 -58.5t-9.5 -48.5v-1175v-14q0 -42 1 -63t9.5 -51.5t25.5 -56.5q26 -38 68 -63z" />
    <glyph glyph-name="germandbls" unicode="&#xdf;" horiz-adv-x="1507" 
d="M1444 397q-2 -137 -81 -244.5t-212 -157.5t-287 -26l-59 8l-115 248l72 -20q60 -19 125.5 6.5t105.5 82t31 118.5q-8 60 -32.5 110t-56 83.5t-67.5 62t-69.5 52t-60 47t-40.5 54t-10 66.5t25 59t47 37.5t50.5 34.5t37 63t4.5 109q-4 31 -7.5 50.5t-12.5 43t-22 36.5
t-36 22.5t-55 11.5q-49 1 -83 -41t-34 -86v-1084q0 -7 0.5 -13.5t2.5 -14t3 -12t5 -13t5 -11t6.5 -13t6.5 -13.5q19 -34 51 -59h-576q34 22 56 63q28 45 28 113v682h-120l120 223l3 99q2 80 24 142.5t62 104.5t87 71t110.5 46t121 25t129.5 12q137 7 265.5 -34.5t211 -133
t66.5 -211.5q-7 -54 -23.5 -93.5t-52 -74t-72 -59.5t-104.5 -64q-11 -6 -8 -24t14 -23q85 -30 156 -70t133.5 -96t97 -131.5t33.5 -163.5z" />
    <glyph glyph-name="agrave" unicode="&#xe0;" horiz-adv-x="1361" 
d="M1307 190l-95 -198l-43 -4q-105 -12 -187 11t-167 85q-48 35 -76 109.5t-28 121.5v197l-119 -57q-41 -20 -63.5 -55.5t-20.5 -77.5q0 -63 61.5 -106.5t124.5 -20.5l-100 -205q-86 -2 -139 -2q-103 0 -185 37t-134 117.5t-52 195.5q0 44 13.5 81.5t33 64.5t54 51.5
t64 39.5t76 30.5t77 23.5t79.5 20q140 36 178 56q57 29 58 71q0 54 -32.5 80.5t-127.5 26.5q-104 0 -166 -27l-115 -47l109 264l115 17q82 12 198 12q109 0 191.5 -30t131.5 -83t73 -120t24 -148v-354q0 -97 70 -148q54 -37 119 -29zM940 1290l-106 -59l-406 158l86 153z
" />
    <glyph glyph-name="aacute" unicode="&#xe1;" horiz-adv-x="1353" 
d="M1298 190l-96 -198l-43 -4q-103 -12 -185 11t-169 85q-48 35 -76.5 110t-28.5 121v197l-118 -57q-41 -20 -63.5 -55.5t-20.5 -77.5q0 -63 61.5 -106.5t124.5 -20.5l-98 -205q-89 -2 -142 -2q-159 0 -264.5 90t-105.5 260q0 44 13.5 81.5t33 64.5t54 51.5t64 39.5t76 30.5
t77 23.5t79.5 20q140 36 178 56q57 29 58 71q0 54 -32.5 80.5t-127.5 26.5q-105 0 -164 -27l-117 -47l109 264l117 17q79 12 198 12q108 0 190 -30t131 -82.5t73 -120t24 -148.5v-354q0 -97 70 -148q54 -37 120 -29zM942 1382l-405 -157l-107 59l426 250z" />
    <glyph glyph-name="acircumflex" unicode="&#xe2;" horiz-adv-x="1349" 
d="M1307 190l-95 -198l-43 -4q-105 -12 -187 11t-167 85q-48 35 -76 109.5t-28 121.5v197l-119 -57q-41 -20 -63.5 -55.5t-20.5 -77.5q0 -63 61.5 -106.5t124.5 -20.5l-100 -205q-86 -2 -139 -2q-103 0 -185 37t-134 117.5t-52 195.5q0 44 13.5 81.5t33 64.5t54 51.5
t64 39.5t76 30.5t77 23.5t79.5 20q140 36 178 56q57 29 58 71q0 54 -32.5 80.5t-127.5 26.5q-104 0 -166 -27l-115 -47l109 264l115 17q82 12 198 12q109 0 191.5 -30t131.5 -83t73 -120t24 -148v-354q0 -97 70 -148q54 -37 119 -29zM1102 1284l-101 -53l-305 98l-303 -98
l-100 53l405 213z" />
    <glyph glyph-name="atilde" unicode="&#xe3;" horiz-adv-x="1351" 
d="M1280 190l-94 -198l-43 -4q-105 -12 -187.5 11.5t-167.5 84.5q-48 35 -76 109.5t-28 121.5v197l-119 -57q-41 -20 -63.5 -55.5t-20.5 -77.5q0 -63 62 -106.5t125 -20.5l-99 -205q-88 -2 -141 -2q-103 0 -185 37t-134 117.5t-52 195.5q0 44 13.5 81.5t33 64.5t54 51.5
t64.5 39.5t76.5 30.5t77 23.5t79.5 20q140 36 178 56q57 29 57 71q0 54 -32.5 80.5t-127.5 26.5q-104 0 -163 -27l-117 -47l108 264l115 17q82 12 199 12q109 0 191.5 -30t131.5 -83t73 -120t24 -148v-354q0 -98 69 -148q54 -37 119 -29zM1106 1415l-29 -35q-41 -56 -83 -89
t-101 -44q-71 -10 -174 31l-64 22q-1 0 -39 15.5t-65 22t-51 3.5q-69 -5 -115 -81l-20 -35l-109 65l31 43q41 54 83.5 87t100.5 44q72 12 176 -24l66 -25q1 -1 16 -7.5t20.5 -8.5t23 -9t25 -8t26 -6.5t25 -4t23.5 0.5q38 4 57 19t50 63l18 25z" />
    <glyph glyph-name="adieresis" unicode="&#xe4;" horiz-adv-x="1359" 
d="M1280 190l-94 -198l-43 -4q-105 -12 -187.5 11.5t-167.5 84.5q-48 35 -76 109.5t-28 121.5v197l-119 -57q-41 -20 -63.5 -55.5t-20.5 -77.5q0 -63 62 -106.5t125 -20.5l-99 -205q-88 -2 -141 -2q-103 0 -185 37t-134 117.5t-52 195.5q0 44 13.5 81.5t33 64.5t54 51.5
t64.5 39.5t76.5 30.5t77 23.5t79.5 20q140 36 178 56q57 29 57 71q0 54 -32.5 80.5t-127.5 26.5q-104 0 -163 -27l-117 -47l108 264l115 17q82 12 199 12q109 0 191.5 -30t131.5 -83t73 -120t24 -148v-354q0 -98 69 -148q54 -37 119 -29zM1001 1393q0 -60 -43 -104t-104 -44
q-60 0 -102.5 44t-42.5 104t42.5 103.5t102.5 43.5q61 0 104 -43.5t43 -103.5zM616 1393q0 -62 -43 -105t-106 -43q-60 0 -102.5 43.5t-42.5 104.5t42.5 104t102.5 43q63 0 106 -42.5t43 -104.5z" />
    <glyph glyph-name="aring" unicode="&#xe5;" horiz-adv-x="1359" 
d="M924 1491q0 -103 -74 -176.5t-178 -73.5q-103 0 -176.5 73.5t-73.5 176.5q0 104 73.5 178t176.5 74q104 0 178 -74t74 -178zM1294 195l-94 -197l-45 -6q-103 -10 -185 13t-169 83q-48 35 -76.5 110.5t-28.5 120.5v199l-118 -57q-40 -20 -62 -55.5t-22 -77.5
q0 -64 61.5 -107.5t124.5 -19.5l-98 -205q-89 -4 -140 -4q-160 0 -266 90.5t-106 259.5q0 35 8 65.5t21 54.5t35 46t42.5 38t52 31t56 25t61 21t60.5 17t61 15q140 36 178 56q57 29 57 71q0 54 -32 80.5t-127 26.5q-93 0 -164 -27l-115 -47l107 262l116 19q99 12 199 12
q108 0 190 -30t131 -83t73 -121t24 -149v-352q0 -96 72 -148q52 -38 118 -30zM797 1491q0 53 -36 90t-89 37q-51 0 -88 -37.5t-37 -89.5q0 -51 37 -88t88 -37q53 0 89 36.5t36 88.5z" />
    <glyph glyph-name="ae" unicode="&#xe6;" horiz-adv-x="1882" 
d="M1757 315l-84 -258l-106 -32q-81 -24 -139.5 -34.5t-134 -9t-150.5 22.5q-85 25 -140.5 55.5t-109.5 87.5q-55 59 -95 147.5t-40 127.5v106l-148 -73q-50 -25 -71.5 -73.5t-3.5 -100.5q19 -54 71.5 -80t106.5 -6l-99 -205l-106 -4q-137 -9 -244.5 49.5t-142.5 179.5
q-23 83 -17.5 146.5t36 107t76.5 76t102.5 52.5t114.5 36.5t112.5 28.5t96.5 28.5t67.5 36.5t24 52t-33.5 75q-29 30 -130 28.5t-158 -26.5l-117 -47l108 264l115 17q129 24 229 9t187 -83q75 49 161.5 72.5t170 22.5t163 -29t142.5 -78.5t106.5 -129.5t55.5 -178l22 -153
h-723l8 -70q11 -95 83 -162.5t141 -95.5q59 -16 114 -16.5t115 14t97 28t61 25.5zM1360 741l-6 43q-4 64 -61 99.5t-122 23.5q-57 -7 -96 -62t-39 -104h324z" />
    <glyph glyph-name="ccedilla" unicode="&#xe7;" horiz-adv-x="1181" 
d="M1116 313l-76 -258l-71 -28q-95 -41 -189 -54q-73 -11 -139 -6l-23 -65l13 -6q72 -28 104.5 -59.5t36.5 -88.5q4 -54 -40 -97.5t-101.5 -64t-106.5 -18.5q-63 3 -110 22l-39 127l51 -20q39 -15 89.5 -17.5t86.5 12.5t29 46q-9 39 -40.5 53.5t-96.5 9.5l-41 -4l69 187
q-202 40 -330 182.5t-129 341.5q-2 137 47 248.5t143 191t243 115.5t338 18l143 -14v-262l-103 49q-39 18 -84.5 25t-94.5 -2.5t-90 -36.5t-70 -83t-35 -134q-7 -98 11.5 -176.5t56 -128t88 -80t108 -38t116 3.5t111.5 40z" />
    <glyph glyph-name="egrave" unicode="&#xe8;" horiz-adv-x="1251" 
d="M1155 297l-84 -258l-106 -33q-137 -43 -271 -43q-195 0 -342 63t-230 187t-83 295q0 144 48 259t129 186.5t182.5 109t213.5 37.5q122 0 231.5 -48t189 -146.5t97.5 -229.5l21 -152h-721l8 -69q6 -64 44 -118.5t89.5 -87t105 -51t97.5 -18.5q125 2 275 68zM758 721
q0 73 -48.5 120.5t-115.5 47.5q-64 0 -110.5 -47t-49.5 -121h324zM872 1284l-104 -57l-406 155l84 154z" />
    <glyph glyph-name="eacute" unicode="&#xe9;" horiz-adv-x="1251" 
d="M1157 324l-84 -261l-106 -30q-137 -43 -271 -43q-195 0 -342.5 63t-231 187t-83.5 295q0 116 31.5 213.5t86.5 166t128.5 116.5t156.5 70.5t172 22.5q90 0 176.5 -28.5t158 -80.5t121.5 -133.5t63 -179.5l20 -151h-721l8 -70q6 -64 44 -118t89.5 -87t105 -51t97.5 -18
q133 2 273 67zM760 748q0 73 -48.5 120t-115.5 47q-64 0 -110.5 -46.5t-49.5 -120.5h324zM872 1386l-405 -159l-107 61l426 250z" />
    <glyph glyph-name="ecircumflex" unicode="&#xea;" horiz-adv-x="1263" 
d="M1184 297l-84 -258l-107 -33q-137 -43 -272 -43q-296 0 -475.5 144.5t-179.5 400.5q0 116 31.5 213.5t86.5 166.5t128 117.5t156.5 71.5t172.5 23q122 0 231.5 -48t189 -146.5t97.5 -229.5l21 -152h-721l8 -69q6 -64 44 -118.5t89.5 -87t105 -51t97.5 -18.5q129 2 272 68
zM786 721q0 73 -48.5 120.5t-114.5 47.5q-64 0 -110.5 -47t-49.5 -121h323zM1049 1278l-101 -53l-307 98l-301 -98l-100 53l405 211z" />
    <glyph glyph-name="edieresis" unicode="&#xeb;" horiz-adv-x="1245" 
d="M1184 297l-84 -258l-107 -33q-137 -43 -272 -43q-296 0 -475.5 144.5t-179.5 400.5q0 116 31.5 213.5t86.5 166.5t128 117.5t156.5 71.5t172.5 23q122 0 231.5 -48t189 -146.5t97.5 -229.5l21 -152h-721l8 -69q6 -64 44 -118.5t89.5 -87t105 -51t97.5 -18.5q129 2 272 68
zM786 721q0 73 -48.5 120.5t-114.5 47.5q-64 0 -110.5 -47t-49.5 -121h323zM1012 1393q0 -60 -43.5 -104t-104.5 -44q-60 0 -102.5 44t-42.5 104t42.5 103.5t102.5 43.5q61 0 104.5 -43.5t43.5 -103.5zM627 1393q0 -62 -43.5 -105t-106.5 -43q-60 0 -102.5 43.5t-42.5 104.5
t42.5 104t102.5 43q63 0 106.5 -42.5t43.5 -104.5z" />
    <glyph glyph-name="igrave" unicode="&#xec;" horiz-adv-x="739" 
d="M580 1282l-107 -57l-405 155l86 154zM678 0h-582q52 24 78 80q19 37 19 115v714q0 20 -9.5 54t-19.5 47q-6 7 -15 17t-14 15.5t-13.5 13.5t-17.5 15h379q8 0 21 -1.5t22 -1t19 4.5q11 2 28.5 16.5t20.5 16.5v-918q0 -75 22 -114q23 -43 62 -74z" />
    <glyph glyph-name="iacute" unicode="&#xed;" horiz-adv-x="704" 
d="M569 1389l-405 -160l-105 61l426 250zM643 0l-582 2q51 25 78 78q19 37 19 115v714q0 19 -10.5 53.5t-20.5 47.5q-34 42 -59 61h378q30 0 64 12q27 10 45 23l2 -918q0 -73 23 -114q14 -26 27 -41t36 -33z" />
    <glyph glyph-name="icircumflex" unicode="&#xee;" horiz-adv-x="784" 
d="M809 1282l-100 -53l-308 98l-301 -98l-100 53l406 213zM694 0l-581 2q27 13 44.5 30.5t32.5 47.5q19 37 19 115v714q0 19 -10.5 53.5t-20.5 47.5q-34 42 -59 61h379q28 0 63 12q31 12 47 23v-918q0 -73 23 -114q14 -26 27 -41t36 -33z" />
    <glyph glyph-name="idieresis" unicode="&#xef;" horiz-adv-x="796" 
d="M754 1389q0 -60 -43.5 -104t-104.5 -44q-60 0 -102.5 44t-42.5 104t42.5 103.5t102.5 43.5q61 0 104.5 -43.5t43.5 -103.5zM367 1389q0 -62 -42.5 -105t-105.5 -43q-60 0 -102.5 43.5t-42.5 104.5t42.5 104t102.5 43q63 0 105.5 -42.5t42.5 -104.5zM698 -6h-581
q52 27 78 80q20 41 20 116v713q0 19 -10.5 53.5t-20.5 47.5q-1 2 -10.5 13.5t-12 14t-9.5 10.5t-13 13t-14 10h379q13 0 63 12q21 8 45 23l2 -918q0 -71 23 -114q24 -45 61 -74z" />
    <glyph glyph-name="ntilde" unicode="&#xf1;" horiz-adv-x="1423" 
d="M1360 0h-594q30 21 45.5 38t26.5 46q3 7 5.5 13t4.5 13.5t3.5 12.5t2.5 13.5t1.5 12t0.5 13.5v13v15v15v518q0 50 -46 99t-105 48q-60 0 -103 -42.5t-43 -102.5v-522q0 -89 23 -129q24 -47 77 -74l-593 -2q28 20 43 37t28 45q15 38 15 115v714q0 43 -19 88q-22 46 -70 82
h320q67 0 111 15q29 8 67 30v-133q73 71 151.5 99t180.5 18q163 -14 268 -109.5t105 -263.5l2 -536v-26v-26.5t1.5 -21.5t4 -24t7.5 -20.5t13 -23.5q19 -31 66 -57zM1130 1413l-28 -35q-41 -56 -83 -89t-101 -44q-72 -10 -175 31l-63 22l-39 16q-39 15 -66 21.5t-51 3.5
q-67 -5 -114 -82l-21 -34l-108 65l30 43q86 112 185 131q72 12 176 -24l65 -25q2 -1 14 -6t17.5 -7.5t20 -8t21 -7.5t22 -7t22.5 -5t22 -2.5t21 0.5q38 4 57 19t50 63l18 25z" />
    <glyph glyph-name="ograve" unicode="&#xf2;" 
d="M1243 551q0 -116 -47.5 -224t-127 -187.5t-189.5 -127t-228 -47.5q-122 0 -228.5 37t-187 107t-126.5 178t-46 241q0 118 45 222t122 177.5t185 116.5t230 43q165 0 300 -63t216.5 -186.5t81.5 -286.5zM858 528q0 164 -53 253t-160 89q-203 0 -203 -368
q0 -66 10.5 -120.5t33.5 -101t65 -72.5t100 -26q112 0 159.5 88.5t47.5 257.5zM909 1282l-104 -59l-406 157l84 154z" />
    <glyph glyph-name="oacute" unicode="&#xf3;" 
d="M1243 551q0 -116 -47.5 -224t-127 -187.5t-189.5 -127t-228 -47.5q-122 0 -228.5 37t-187 107t-126.5 178t-46 241q0 118 45 222t122 177.5t185 116.5t230 43q165 0 300 -63t216.5 -186.5t81.5 -286.5zM858 528q0 164 -53 253t-160 89q-203 0 -203 -368
q0 -66 10.5 -120.5t33.5 -101t65 -72.5t100 -26q112 0 159.5 88.5t47.5 257.5zM903 1382l-405 -159l-105 61l426 250z" />
    <glyph glyph-name="ocircumflex" unicode="&#xf4;" 
d="M1243 551q0 -116 -47.5 -224t-127 -187.5t-189.5 -127t-228 -47.5q-122 0 -228.5 37t-187 107t-126.5 178t-46 241q0 118 45 222t122 177.5t185 116.5t230 43q165 0 300 -63t216.5 -186.5t81.5 -286.5zM858 528q0 164 -53 253t-160 89q-203 0 -203 -368
q0 -66 10.5 -120.5t33.5 -101t65 -72.5t100 -26q112 0 159.5 88.5t47.5 257.5zM1059 1278l-101 -53l-307 98l-301 -98l-100 53l405 211z" />
    <glyph glyph-name="otilde" unicode="&#xf5;" horiz-adv-x="1320" 
d="M1247 545q0 -116 -47.5 -224t-127 -186.5t-189.5 -126t-228 -47.5q-122 0 -228.5 37.5t-187 107t-127 177t-46.5 239.5q0 158 76.5 286.5t210 200.5t296.5 72q165 0 300 -63t216.5 -186.5t81.5 -286.5zM862 522q0 164 -53 253t-160 89q-205 0 -205 -368
q0 -66 10.5 -120.5t34 -101t66 -72.5t100.5 -26q112 0 159.5 89t47.5 257zM1098 1378l-29 -37q-41 -56 -83.5 -89t-102.5 -44q-71 -10 -174 31l-64 23q-1 0 -16 7t-19.5 8.5t-22.5 8.5t-24 8t-24.5 6t-24 3.5t-22.5 -0.5q-70 -5 -117 -82l-21 -35l-108 65l30 43
q86 112 187 133q71 10 176 -26l63 -25q2 -1 14 -6t17.5 -7.5t20 -8t21 -7.5t22 -7t22.5 -5t22 -2.5t21 0.5q38 4 56.5 19t52.5 63l16 25z" />
    <glyph glyph-name="odieresis" unicode="&#xf6;" 
d="M1243 551q0 -116 -47.5 -224t-127 -187.5t-189.5 -127t-228 -47.5q-122 0 -228.5 37t-187 107t-126.5 178t-46 241q0 118 45 222t122 177.5t185 116.5t230 43q165 0 300 -63t216.5 -186.5t81.5 -286.5zM858 528q0 164 -53 253t-160 89q-203 0 -203 -368
q0 -66 10.5 -120.5t33.5 -101t65 -72.5t100 -26q112 0 159.5 88.5t47.5 257.5zM1004 1393q0 -60 -43.5 -104t-104.5 -44q-60 0 -102.5 44t-42.5 104t42.5 103.5t102.5 43.5q61 0 104.5 -43.5t43.5 -103.5zM618 1393q0 -62 -43 -105t-106 -43q-60 0 -102.5 43.5t-42.5 104.5
t42.5 104t102.5 43q63 0 106 -42.5t43 -104.5z" />
    <glyph glyph-name="divide" unicode="&#xf7;" horiz-adv-x="1468" 
d="M872 842q-2 -39 -19 -69t-43 -45t-56.5 -21t-61 2.5t-55 25t-39 47.5t-12.5 70q1 39 18 69t42.5 45t56 21.5t60.5 -2t55 -25t40 -48t14 -70.5zM1382 426h-1312v143l1312 -2v-141zM877 160q4 -40 -9 -73.5t-37 -52.5t-54 -29.5t-62 -6.5t-59 17.5t-46.5 43.5t-23.5 70
t9 73t37 52t54.5 30t62.5 6.5t59 -17.5t46 -43t23 -70z" />
    <glyph glyph-name="oslash" unicode="&#xf8;" horiz-adv-x="1347" 
d="M1243 551q0 -116 -47.5 -224t-127 -187.5t-189.5 -127t-228 -47.5q-132 0 -258 47l-108 -153h-191l166 231q-197 156 -197 438q0 118 45 222t122 177.5t185 116.5t230 43q160 0 283 -57l125 176h178l-178 -252q90 -69 140 -172t50 -231zM776 819q-51 51 -131 51
q-203 0 -203 -368q0 -82 13 -135zM858 528q0 66 -10 134l-311 -445q47 -35 114 -35q112 0 159.5 88.5t47.5 257.5z" />
    <glyph glyph-name="ugrave" unicode="&#xf9;" horiz-adv-x="1376" 
d="M1315 0h-494v121q-61 -81 -130.5 -113.5t-186.5 -38.5q-145 -6 -252 77t-107 228v635q0 65 -24 109q-22 40 -58 61h371q4 0 13 2.5t23.5 6.5t23.5 6q27 7 55 24v-770q0 -49 34 -94t87 -51q59 -6 105 38t46 105v535q0 84 -26 131q-23 39 -66 67h371q12 0 23 2t25 6.5
t23 6.5q35 11 52 18v-944q0 -45 20 -84q20 -49 72 -84zM934 1282l-105 -59l-405 157l84 154z" />
    <glyph glyph-name="uacute" unicode="&#xfa;" horiz-adv-x="1351" 
d="M1260 27h-494v120q-60 -80 -129.5 -112.5t-187.5 -38.5q-145 -6 -252 77t-107 228v635q0 38 -4 60.5t-20 47.5q-24 43 -56 62h369q5 0 59 14q25 7 56 25v-770q0 -49 34.5 -94.5t87.5 -51.5q60 -6 105 38t45 106v534q0 82 -27 131q-24 42 -65 68h370q13 0 24 2t25.5 6
t22.5 6q22 4 51 19v-944q0 -37 21 -84q19 -46 72 -84zM899 1384l-405 -157l-105 59l426 250z" />
    <glyph glyph-name="ucircumflex" unicode="&#xfb;" horiz-adv-x="1376" 
d="M1315 0h-494v121q-61 -81 -130.5 -113.5t-186.5 -38.5q-145 -6 -252 77t-107 228v635q0 65 -24 109q-22 40 -58 61h371q4 0 13 2.5t23.5 6.5t23.5 6q27 7 55 24v-770q0 -49 34 -94t87 -51q59 -6 105 38t46 105v535q0 84 -26 131q-23 39 -66 67h371q12 0 23 2t25 6.5
t23 6.5q35 11 52 18v-944q0 -45 20 -84q20 -49 72 -84zM1110 1284l-100 -53l-308 98l-301 -98l-100 53l406 211z" />
    <glyph glyph-name="udieresis" unicode="&#xfc;" horiz-adv-x="1382" 
d="M1315 0h-494v121q-61 -81 -130.5 -113.5t-186.5 -38.5q-145 -6 -252 77t-107 228v635q0 65 -24 109q-22 40 -58 61h371q4 0 13 2.5t23.5 6.5t23.5 6q27 7 55 24v-770q0 -49 34 -94t87 -51q59 -6 105 38t46 105v535q0 84 -26 131q-23 39 -66 67h371q12 0 23 2t25 6.5
t23 6.5q35 11 52 18v-944q0 -45 20 -84q20 -49 72 -84zM1020 1393q0 -60 -43.5 -104t-104.5 -44q-60 0 -102.5 44t-42.5 104t42.5 103.5t102.5 43.5q61 0 104.5 -43.5t43.5 -103.5zM635 1393q0 -62 -43.5 -105t-106.5 -43q-60 0 -102.5 43.5t-42.5 104.5t42.5 104t102.5 43
q63 0 106.5 -42.5t43.5 -104.5z" />
    <glyph glyph-name="ydieresis" unicode="&#xff;" horiz-adv-x="1363" 
d="M1118 1384q0 -60 -43.5 -103.5t-103.5 -43.5t-104 43.5t-44 103.5t44 104t104 44t103.5 -44t43.5 -104zM731 1384q0 -62 -42 -104.5t-105 -42.5q-61 0 -103.5 42.5t-42.5 104.5t42.5 105t103.5 43q63 0 105 -43t42 -105zM1333 1122l-514 -1337q-16 -38 -37 -63t-61 -58
q-40 -37 -77 -56.5t-89 -29.5l-109 -20q-91 -21 -165 -21q-43 0 -99 6q18 41 99 138q29 34 70 52.5t76.5 24t80 22.5t78.5 48q41 38 62 76.5t42 103.5l12 43q-35 21 -81 64q-37 37 -59 73.5t-46 94.5l-301 714q-4 12 -21 38t-36 44q-17 19 -60 43h523l253 -645l160 471
q11 27 4 72q-1 5 -2 12.5t-2 12t-3.5 10t-6.5 10.5l-43 57h352z" />
    <glyph glyph-name="OE" unicode="&#x152;" horiz-adv-x="2349" 
d="M2269 358l-98 -362h-989q-2 0 -22.5 -6t-46.5 -12t-74 -11.5t-101 -5.5q-190 0 -353 61t-276.5 167t-178 254.5t-64.5 318.5q0 132 37 253.5t111.5 223t178 177t245 117.5t304.5 42q67 0 130 -6t94.5 -12.5t39.5 -10.5h797q23 0 33 2q12 4 26 11v-357q-18 43 -57 70
q-23 17 -56 27t-48 10h-234l-2 -379h227q47 0 62 4q5 2 15.5 6t15.5 6v-352q-16 48 -60 76q-39 28 -104 28h-156v-444q53 -21 142 -32.5t163 -4.5q35 4 63 9.5t48 9.5t41 14t30.5 13.5t29.5 19t25.5 20t29.5 26.5t32 29zM1343 774q0 108 -30.5 210t-85 182t-137.5 128.5
t-181 48.5q-88 0 -157 -32.5t-112.5 -86.5t-72 -129t-40 -154.5t-11.5 -168.5q0 -103 30 -204.5t83 -184.5t135 -134.5t178 -51.5q94 0 165 29.5t115.5 79.5t72 125t38 157.5t10.5 185.5z" />
    <glyph glyph-name="oe" unicode="&#x153;" horiz-adv-x="2045" 
d="M1978 297l-86 -258l-106 -33q-128 -41 -270 -41q-305 0 -480 146q-169 -146 -385 -146q-122 0 -228.5 37t-187 107t-126.5 178t-46 241q0 118 45 222t122 177.5t185 116.5t230 43q245 0 404 -126q142 126 385 126q91 0 177 -26.5t158 -76.5t121.5 -129.5t63.5 -178.5
l20 -152h-723l9 -69q6 -64 44 -118.5t89.5 -87t105.5 -51t98 -18.5q131 2 273 68zM1581 721q0 73 -48.5 120.5t-115.5 47.5q-66 0 -112.5 -47t-49.5 -121h326zM858 528q0 164 -53 253t-160 89q-203 0 -203 -368q0 -66 10.5 -120.5t33.5 -101t65 -72.5t100 -26
q112 0 159.5 88.5t47.5 257.5z" />
    <glyph glyph-name="Ydieresis" unicode="&#x178;" horiz-adv-x="1478" 
d="M1425 1550l-428 -856v-438q0 -54 11 -93t39 -85q24 -44 63 -78h-655q29 19 59 53q57 71 49 166v479l-348 662q-5 9 -16.5 30t-16.5 30t-16 24.5t-23 30.5q-38 43 -82 75h547l275 -567l166 342q26 54 24 107q-5 72 -80 118h432zM1128 1851q0 -60 -43 -103.5t-104 -43.5
q-60 0 -102.5 43.5t-42.5 103.5t42.5 104t102.5 44q61 0 104 -44t43 -104zM743 1851q0 -62 -43 -104.5t-106 -42.5q-60 0 -102.5 43t-42.5 104t42.5 104.5t102.5 43.5q63 0 106 -43t43 -105z" />
    <glyph glyph-name="florin" unicode="&#x192;" horiz-adv-x="886" 
d="M805 1528q-14 -39 -45 -61.5t-72 -22.5q-20 0 -42.5 21t-33.5 26q-28 16 -47 -9t-29.5 -82.5t-17.5 -119.5t-16 -138.5t-21 -123.5l-12 -45h225l-12 -94h-238l-135 -680q-11 -56 -24.5 -112t-36.5 -133.5t-48.5 -143.5t-62 -131.5t-76 -107.5t-90 -61.5t-104.5 -3.5
q-32 9 -53 41.5t-9 63.5q12 37 40.5 60t66.5 24q17 1 28 -7.5t15 -19t12.5 -21.5t20.5 -14q20 -6 37.5 5.5t31.5 41t25.5 63t22.5 84t18.5 89.5t17 93.5t15.5 84.5l157 787h-247l6 92h276l12 61q18 87 39 164t52.5 159t67 140.5t82.5 96t99 38.5q45 0 81.5 -33t23.5 -71z
" />
    <glyph glyph-name="Delta" unicode="&#x394;" horiz-adv-x="1523" 
d="M1448 0h-1387l740 1554zM1174 100l-459 1086l-510 -1086h969z" />
    <glyph glyph-name="Omega" unicode="&#x3a9;" horiz-adv-x="1882" 
d="M1804 -2h-727l35 358q176 80 260.5 230t81.5 352q0 94 -11.5 167.5t-44.5 145.5t-88.5 119.5t-148.5 77.5t-219 31q-116 1 -206.5 -27.5t-149.5 -77.5t-98 -119.5t-55 -148t-17 -168.5q-3 -202 81.5 -352t260.5 -230l37 -358h-727v379h47q0 -54 24 -86q36 -62 127 -62
h398v74q-235 39 -378 216t-151 423q-6 143 53.5 259.5t169 192.5t258 117t322.5 41q373 0 591 -161.5t208 -448.5q-6 -162 -71.5 -297t-184.5 -225.5t-275 -116.5v-74h398q91 0 129 62q24 36 24 86h47v-379z" />
    <glyph glyph-name="pi" unicode="&#x3c0;" horiz-adv-x="1290" 
d="M1212 348l-8 -47q-9 -83 -45 -152.5t-98.5 -112t-138.5 -36.5q-63 4 -106.5 46.5t-60.5 104.5t-23.5 135t3.5 140l51 473h-258l-88 -700q-8 -57 -28.5 -107.5t-59.5 -83t-86 -18.5q-82 24 -94 78q-10 40 3.5 73t37 53t52 50.5t40.5 60.5q5 14 14.5 35t15 38.5t7.5 37.5
l51 477h-71q-72 0 -105 -12q-36 -15 -69.5 -55t-41.5 -64l-38 14l16 33q5 10 18 42t18.5 43t17.5 36t22 37t25 29.5t32.5 29.5t38.5 23q63 32 143 32h799v-182h-291l-28 -528q-5 -71 36.5 -129.5t108.5 -55.5q53 1 88.5 35.5t46.5 91.5l10 35h43z" />
    <glyph glyph-name="endash" unicode="&#x2013;" horiz-adv-x="1077" 
d="M1014 721q-4 -13 -52 -64.5t-105 -111t-73 -78.5q-11 -13 -32.5 -18.5t-34 -6t-45.5 -0.5h-340q-20 0 -40.5 -2t-31.5 -4t-36.5 -7t-35.5 -7q-57 -7 -131 -27l195 244q18 26 63 39q20 8 39 9t44.5 -2t41.5 -3q31 1 254 4q23 0 55.5 0.5t46.5 1t35 1.5t40 3.5t44 7.5z" />
    <glyph glyph-name="emdash" unicode="&#x2014;" horiz-adv-x="1691" 
d="M1614 721q-4 -13 -51 -64t-105.5 -111.5t-73.5 -78.5q-11 -13 -32 -18.5t-33 -6t-45 -0.5h-936q-37 0 -143 -20q-59 -7 -132 -27l195 244q21 27 66 39q19 8 37 9t43 -2t40 -3q79 2 343.5 1.5t506.5 2.5q23 0 55.5 0.5t47 1t36 1.5t41 3.5t44.5 7.5z" />
    <glyph glyph-name="quoteleft" unicode="&#x2018;" horiz-adv-x="454" 
d="M403 1571q-82 -54 -139 -121q-32 -35 -41 -49q63 2 106 -38t46 -108q2 -42 -25.5 -80.5t-68 -58t-90 -7.5t-85.5 62q-42 63 -36.5 132t49.5 129q43 60 97.5 108.5t78.5 50.5q35 5 70 -6z" />
    <glyph glyph-name="quoteright" unicode="&#x2019;" horiz-adv-x="462" 
d="M342 1530q42 -65 36.5 -133.5t-48.5 -128.5q-46 -62 -98 -110.5t-78 -49.5q-40 -3 -68 6l-41 14q74 47 141 123q22 22 41 49q-63 -2 -106.5 38t-46.5 106q-2 34 15.5 67t47.5 53.5t65 29t73 -7.5t67 -56z" />
    <glyph glyph-name="quotesinglbase" unicode="&#x201a;" horiz-adv-x="462" 
d="M342 225q42 -65 36.5 -133.5t-48.5 -128.5q-46 -61 -98.5 -109t-77.5 -49q-36 -3 -68 5l-41 16q73 44 141 121q13 13 41 49q-63 -2 -106.5 37.5t-46.5 105.5q-2 44 25.5 83t67.5 58t89.5 7t85.5 -62z" />
    <glyph glyph-name="quotedblleft" unicode="&#x201c;" horiz-adv-x="849" 
d="M801 1569q-81 -55 -139 -121q-23 -26 -41 -49q63 2 106.5 -39t44.5 -107q2 -43 -25.5 -82t-67.5 -58.5t-89.5 -7.5t-85.5 62q-42 67 -36 134.5t50 128.5q42 59 96.5 107.5t81.5 51.5q33 3 66 -8zM395 1575q-82 -59 -139 -121q-8 -10 -20.5 -25.5t-20.5 -25.5
q63 2 107 -38.5t45 -107.5q2 -42 -25.5 -80.5t-68 -57.5t-89.5 -7t-84 62q-43 65 -37 132t50 128q42 60 96.5 109t81.5 52q32 3 65 -8z" />
    <glyph glyph-name="quotedblright" unicode="&#x201d;" horiz-adv-x="876" 
d="M764 1530q41 -66 35 -134t-49 -128q-42 -61 -96 -110t-81 -52q-34 -3 -67 8l-39 12q84 59 139 123q32 35 41 49q-61 -2 -105.5 39t-47.5 107q-1 34 16.5 66.5t48 53.5t65.5 29t73 -7.5t67 -55.5zM358 1530q42 -65 36 -133.5t-50 -128.5q-41 -60 -95.5 -109t-80.5 -51
q-40 -3 -66 6l-41 14q80 53 142 123q23 27 39 49q-62 -2 -106.5 38t-47.5 106q-1 43 27.5 81.5t69 58t89.5 7.5t84 -61z" />
    <glyph glyph-name="quotedblbase" unicode="&#x201e;" horiz-adv-x="825" 
d="M715 225q41 -65 34.5 -133.5t-49.5 -128.5q-44 -60 -97 -108.5t-79 -49.5q-35 -3 -67 5l-39 16q42 27 72 53t67 68q13 13 41 49q-62 -2 -106.5 37.5t-47.5 105.5q-1 44 27 83t68.5 58t90 7t85.5 -62zM342 225q42 -65 36.5 -133.5t-48.5 -128.5q-46 -61 -98.5 -109
t-77.5 -49q-36 -3 -68 5l-41 16q73 44 141 121q13 13 41 49q-63 -2 -106.5 37.5t-46.5 105.5q-2 44 25.5 83t67.5 58t89.5 7t85.5 -62z" />
    <glyph glyph-name="dagger" unicode="&#x2020;" horiz-adv-x="1320" 
d="M1231 791q-41 24 -88 38q-71 23 -115 23h-244v-991q0 -39 15 -92q15 -48 49 -93h-391q34 42 49 88q16 49 16 97v991h-241q-13 0 -24.5 -1t-24 -4t-20 -5t-23 -6.5t-23.5 -6.5q-18 -5 -90 -34v358q62 -30 94 -37q57 -14 131 -14l219 -2v301q0 25 -22 78q-8 28 -41 84
l393 -2q-25 -30 -45 -76q-21 -54 -21 -84v-295h224q64 0 127 16q40 6 94 29z" />
    <glyph glyph-name="bullet" unicode="&#x2022;" horiz-adv-x="821" 
d="M741 799q0 -82 -29 -148.5t-77 -107t-109 -62.5t-125 -22t-125 22t-109 62.5t-77 107t-29 148.5t29 148.5t77 107.5t109 63.5t125 22.5t125 -22.5t109 -63.5t77 -107.5t29 -148.5z" />
    <glyph glyph-name="ellipsis" unicode="&#x2026;" horiz-adv-x="1560" 
d="M1329 -12q-45 -6 -83 7.5t-60 40t-35 60.5t-9.5 70t18 67t47 53.5t77.5 28.5t83.5 -7t60.5 -39t35.5 -60t9.5 -70t-18.5 -67.5t-47.5 -54.5t-78 -29zM258 0q-45 -6 -83 7t-60 39.5t-35.5 60.5t-9.5 70t18 67.5t47 54.5t78 29t83 -7t60 -39t35 -60t9.5 -70t-18 -67.5
t-47 -55t-77.5 -29.5zM784 -12q-45 -6 -83 7.5t-60 40t-35.5 60.5t-9.5 70t18 67t47 53.5t78 28.5t83 -7t60 -39t35 -60t9.5 -70t-18 -67.5t-47 -54.5t-77.5 -29z" />
    <glyph glyph-name="trademark" unicode="&#x2122;" horiz-adv-x="1808" 
d="M1735 1479h-15q-62 0 -73 -15q-1 -1 -3 -3.5t-3 -3.5l-3 -3t-2.5 -3.5t-1.5 -3.5t-1.5 -4t-1 -5l-1 -6t-0.5 -6.5v-8.5v-573q0 -24 15 -45q6 -6 15 -9.5t16 -4.5t17.5 -2t12.5 -1l27 -2v-32h-19q-1 0 -52.5 4t-80.5 4q-31 0 -82 -4t-57 -4h-19v34l31 2q40 0 55 15
q17 20 17 45v534l-301 -641h-23l-301 639v-532q0 -25 17 -45q5 -6 14 -9.5t16 -4.5t17 -2t12 -1l27 -2v-32h-17q-2 0 -54 4t-83 4q-18 0 -50 -4t-40 -4h-19v34l31 2q40 0 53 15q19 19 19 45v573v11.5t-1.5 9t-1.5 6.5t-2.5 5.5t-3 4t-4 5t-4.5 5.5q-11 15 -75 15h-11v34h19
q4 0 30.5 -3t43.5 -3q24 0 64.5 3t41.5 3h12l289 -610l111 234q16 32 41.5 82.5t35 69.5t25.5 53t33 73q14 31 33 80l6 18h16q3 0 37.5 -3t54.5 -3t52.5 3t35.5 3h13v-34zM700 1518l-6 -183h-32l-11 70q0 22 -10 39q-10 10 -29 10l-174 4v-614q0 -26 11 -45q6 -6 15.5 -10
t17 -4.5t17.5 -1.5t13 -1l25 -2v-32h-17q-2 0 -53 4t-82 4t-82 -4t-57 -4h-17v34l31 2q38 0 55 15q17 24 17 45v614l-172 -6q-18 0 -23 -6q-10 -14 -12 -31l-12 -80h-33l-6 181h16q7 -1 55 -3t119 -3.5t123 -0.5q283 5 293 7z" />
    <glyph glyph-name="partialdiff" unicode="&#x2202;" horiz-adv-x="1114" 
d="M1026 862q9 -120 -11.5 -248.5t-69 -245t-117 -207t-162.5 -140t-197 -39.5q-189 20 -293 134.5t-113 291.5q-5 123 51 232.5t158.5 176.5t223.5 66q82 -1 141.5 -24.5t134.5 -78.5l64 -45l16 109q14 74 10 153t-17 154t-45 142.5t-73.5 118.5t-103.5 80.5t-134 29.5
q-38 0 -68.5 -6.5t-76 -24t-65.5 -23.5l-39 -12l-82 100l92 29q49 13 71 18t58 9.5t74 3.5q107 -2 198 -46t155.5 -116.5t112 -169.5t73.5 -203t34 -219zM819 653l-59 58q-60 58 -142 77q-63 13 -121.5 -7t-102.5 -63.5t-76.5 -100.5t-51.5 -123q-19 -69 -18.5 -139t19 -133
t62 -111t107.5 -68q60 -18 113 2t90 64t67.5 110.5t49 131t32.5 136.5z" />
    <glyph glyph-name="product" unicode="&#x220f;" horiz-adv-x="1937" 
d="M1858 -266h-707v43l55 2q36 1 51.5 2.5t38.5 10.5t39 26q10 10 17.5 22.5t11 22t5 26t2 24t0 28.5t-0.5 28v1499h-829v-1482q0 -45 2.5 -70t15.5 -54.5t39 -49.5q20 -15 44 -21.5t37.5 -7t49.5 -0.5h45v-49h-708v51h55q32 0 48 1t38 7.5t39 20.5q24 20 36 48t13.5 49
t1.5 63v14v1349q0 98 -72 162q-49 43 -110 51l-37 2v47h1780v-49l-50 -4q-57 -3 -106 -43q-43 -35 -57.5 -82t-14.5 -118v-1338q0 -38 1.5 -57.5t12.5 -46.5t33 -47q42 -38 129 -41l52 -2v-37z" />
    <glyph glyph-name="summation" unicode="&#x2211;" horiz-adv-x="1705" 
d="M1630 254q-44 -133 -67 -264q-23 -130 -25 -242l-164 33h-1313l813 893l-798 999l147 -16h1245l2 -365h-47q3 121 -86 201q-45 40 -94 50.5t-131 10.5h-670l645 -780l-692 -774h924q81 0 151 53q103 78 111 201h49z" />
    <glyph glyph-name="radical" unicode="&#x221a;" horiz-adv-x="1150" 
d="M1108 1923l-311 -1927l-514 1018l-195 -101l-33 68l299 143l416 -813l268 1622z" />
    <glyph glyph-name="infinity" unicode="&#x221e;" horiz-adv-x="1656" 
d="M1589 537q4 -147 -91 -240.5t-222 -91.5q-81 2 -175 40t-169 109l-98 92l-99 -92q-76 -71 -169.5 -109t-176.5 -40q-125 -2 -220 91.5t-91 240.5q3 125 94 210t221 93q152 8 318 -144l120 -108l125 108q169 152 316 144q131 -8 222.5 -93t94.5 -210zM1479 526
q-6 88 -67 144t-148 53q-62 -1 -107 -22.5t-108 -69.5l-148 -111l137 -127q51 -46 103 -65.5t121 -18.5q101 3 163 65t54 152zM766 520l-148 111q-63 48 -108 69.5t-107 22.5q-89 3 -149 -53t-66 -144q-8 -89 54.5 -151.5t163.5 -65.5q68 -1 120 18.5t103 65.5z" />
    <glyph glyph-name="integral" unicode="&#x222b;" horiz-adv-x="710" 
d="M635 1792q-4 -37 -31.5 -60.5t-64.5 -23.5q-23 0 -50 22.5t-36 26.5q-40 19 -50 -50q-8 -61 12 -284q15 -157 15 -223v-704q0 -72 -2.5 -135.5t-11 -158t-28 -165.5t-48.5 -134.5t-78 -90t-112 -9.5q-33 8 -62 40t-25 67q3 34 28 57t59 25q29 1 52 -29.5t40 -34.5
q27 -8 42.5 18.5t19.5 84t3.5 110.5t-3.5 133t-3 117v977q0 528 209 528q50 0 91 -30t34 -74z" />
    <glyph glyph-name="approxequal" unicode="&#x2248;" horiz-adv-x="1357" 
d="M1290 799l-45 -56q-58 -72 -122.5 -105.5t-155.5 -39.5q-40 -2 -75 6.5t-80 26.5t-71 26l-186 58q-14 4 -39.5 12t-39 11.5t-34 7t-40 3t-40.5 -5.5q-52 -12 -87.5 -35t-73.5 -67l-37 -45l-98 70l32 34q60 71 117.5 106t142.5 50q37 10 84 5.5t77 -12.5t83 -26l164 -53
q19 -6 50 -18.5t48 -18.5t44.5 -10t54.5 -2q66 5 110.5 25t85.5 69l41 45zM1290 442l-45 -57q-58 -72 -122.5 -105.5t-155.5 -39.5q-40 -1 -74.5 7.5t-80.5 26t-71 25.5l-186 57q-15 4 -40 12t-39 11.5t-34 7.5t-39.5 3.5t-40.5 -5.5q-52 -12 -87.5 -35t-73.5 -67l-37 -43
l-98 67l32 35q60 71 117.5 106t142.5 50q36 10 84 5.5t77 -12t83 -24.5l164 -53q19 -6 50 -18.5t48.5 -19t44.5 -10.5t54 -1q66 5 110.5 24.5t85.5 67.5l41 45z" />
    <glyph glyph-name="notequal" unicode="&#x2260;" horiz-adv-x="1402" 
d="M1311 776h-459l-182 -327h639v-132h-713l-209 -372l-117 67l172 307h-368v132h444l182 323l-626 2v123l692 -2l223 393l111 -65l-178 -322h387z" />
    <glyph glyph-name="lessequal" unicode="&#x2264;" horiz-adv-x="1320" 
d="M1233 272l-1151 541v145l1149 541v-147l-1010 -467l1012 -471v-142zM1235 -2h-1159v129h1159v-129z" />
    <glyph glyph-name="greaterequal" unicode="&#x2265;" 
d="M1225 813l-1151 -541v142l1009 471l-1007 467v147l1149 -541v-145zM1229 -2h-1157v129h1157v-129z" />
    <glyph glyph-name="lozenge" unicode="&#x25ca;" horiz-adv-x="1064" 
d="M1001 780l-403 -780h-131l-412 793l412 757h131zM881 780l-351 654l-350 -646l355 -694z" />
    </font>
</defs>
</svg>
